<svg width="805" height="109" viewBox="0 0 805 109" fill="none" xmlns="http://www.w3.org/2000/svg">
<g clip-path="url(#clip0_196_100)">
<path d="M153.56 53.98C152.92 53.98 152.39 53.78 151.96 53.37C151.53 52.96 151.32 52.46 151.32 51.87C151.32 51.23 151.53 50.71 151.96 50.3C152.39 49.9 152.92 49.69 153.56 49.69H169.88C170.52 49.69 171.05 49.89 171.48 50.3C171.91 50.71 172.12 51.23 172.12 51.87C172.12 52.47 171.91 52.97 171.48 53.37C171.05 53.78 170.52 53.98 169.88 53.98H153.56ZM169.49 83.42C167.23 83.42 165.21 82.89 163.44 81.82C161.67 80.75 160.27 79.29 159.25 77.44C158.23 75.58 157.71 73.46 157.71 71.07V39.77C157.71 39.04 157.93 38.45 158.38 37.98C158.83 37.51 159.41 37.28 160.14 37.28C160.87 37.28 161.46 37.51 161.93 37.98C162.4 38.45 162.63 39.05 162.63 39.77V71.07C162.63 73.25 163.27 75.03 164.55 76.41C165.83 77.8 167.47 78.49 169.48 78.49H171.21C171.89 78.49 172.45 78.72 172.87 79.19C173.29 79.66 173.51 80.26 173.51 80.98C173.51 81.7 173.25 82.29 172.74 82.74C172.23 83.19 171.59 83.41 170.82 83.41H169.48L169.49 83.42Z" fill="#FEFEFE"></path>
<path d="M177.75 69.15C176.98 69.15 176.37 68.92 175.93 68.45C175.48 67.98 175.26 67.38 175.26 66.66V35.94C175.26 35.17 175.48 34.56 175.93 34.12C176.38 33.67 176.99 33.45 177.75 33.45C178.48 33.45 179.06 33.67 179.51 34.12C179.96 34.57 180.18 35.18 180.18 35.94V66.66C180.18 67.39 179.96 67.98 179.51 68.45C179.06 68.92 178.48 69.15 177.75 69.15ZM177.75 83.42C176.98 83.42 176.37 83.2 175.93 82.75C175.48 82.3 175.26 81.72 175.26 80.99V50.91C175.26 50.14 175.48 49.53 175.93 49.09C176.38 48.64 176.99 48.42 177.75 48.42C178.48 48.42 179.06 48.64 179.51 49.09C179.96 49.54 180.18 50.15 180.18 50.91V80.99C180.18 81.72 179.96 82.3 179.51 82.75C179.06 83.2 178.48 83.42 177.75 83.42ZM205.27 83.42C204.54 83.42 203.95 83.19 203.48 82.72C203.01 82.25 202.78 81.68 202.78 80.99V64.35C202.78 61.7 202.28 59.53 201.28 57.82C200.28 56.11 198.91 54.83 197.18 53.98C195.45 53.13 193.5 52.7 191.32 52.7C189.14 52.7 187.34 53.11 185.66 53.92C183.97 54.73 182.64 55.84 181.66 57.25C180.68 58.66 180.19 60.26 180.19 62.05H176.67C176.75 59.36 177.48 56.96 178.85 54.85C180.22 52.74 182.03 51.07 184.29 49.86C186.55 48.64 189.07 48.04 191.84 48.04C194.87 48.04 197.58 48.67 199.97 49.93C202.36 51.19 204.25 53.03 205.63 55.47C207.02 57.9 207.71 60.87 207.71 64.37V81.01C207.71 81.69 207.47 82.27 207.01 82.74C206.55 83.21 205.96 83.44 205.28 83.44L205.27 83.42Z" fill="#FEFEFE"></path>
<path d="M228.18 83.74C224.72 83.74 221.66 82.98 219 81.47C216.33 79.96 214.24 77.85 212.73 75.17C211.22 72.48 210.46 69.41 210.46 65.95C210.46 62.49 211.17 59.37 212.6 56.7C214.03 54.03 216 51.93 218.52 50.4C221.04 48.87 223.94 48.1 227.22 48.1C230.5 48.1 233.29 48.84 235.7 50.31C238.11 51.78 239.98 53.82 241.3 56.42C242.62 59.02 243.28 61.99 243.28 65.32C243.28 66 243.07 66.55 242.64 66.95C242.21 67.36 241.66 67.56 240.98 67.56H213.78V63.46H241.49L238.74 65.44C238.78 62.97 238.33 60.75 237.4 58.78C236.46 56.82 235.13 55.28 233.4 54.17C231.67 53.06 229.61 52.51 227.22 52.51C224.83 52.51 222.65 53.09 220.82 54.24C218.98 55.39 217.57 56.98 216.56 59.01C215.56 61.04 215.06 63.35 215.06 65.95C215.06 68.55 215.63 70.86 216.76 72.86C217.89 74.87 219.44 76.44 221.4 77.59C223.36 78.74 225.62 79.32 228.18 79.32C229.72 79.32 231.26 79.05 232.82 78.52C234.38 77.99 235.62 77.32 236.56 76.5C237.03 76.12 237.56 75.91 238.16 75.89C238.76 75.87 239.27 76.03 239.7 76.37C240.25 76.88 240.54 77.44 240.56 78.03C240.58 78.63 240.34 79.14 239.82 79.57C238.41 80.77 236.62 81.76 234.44 82.55C232.26 83.34 230.17 83.73 228.17 83.73L228.18 83.74Z" fill="#FEFEFE"></path>
<path d="M281.13 83.73C276.92 83.73 273.2 82.81 269.98 80.96C266.76 79.12 264.22 76.57 262.38 73.32C260.53 70.07 259.61 66.34 259.61 62.13C259.61 57.92 260.53 54.11 262.38 50.86C264.22 47.61 266.76 45.06 269.98 43.22C273.2 41.38 276.92 40.45 281.13 40.45C285.34 40.45 288.98 41.37 292.2 43.22C295.42 45.07 297.96 47.61 299.8 50.86C301.64 54.11 302.57 57.87 302.57 62.13C302.57 66.39 301.66 70.07 299.84 73.32C298.02 76.57 295.5 79.12 292.28 80.96C289.06 82.81 285.34 83.73 281.13 83.73ZM281.13 76.72C283.83 76.72 286.22 76.1 288.3 74.85C290.38 73.6 292 71.89 293.17 69.7C294.34 67.52 294.92 65 294.92 62.14C294.92 59.28 294.34 56.75 293.17 54.54C292 52.33 290.38 50.6 288.3 49.35C286.22 48.1 283.83 47.48 281.13 47.48C278.43 47.48 276.04 48.1 273.96 49.35C271.88 50.6 270.24 52.33 269.05 54.54C267.85 56.75 267.26 59.28 267.26 62.14C267.26 65 267.86 67.52 269.05 69.7C270.25 71.88 271.88 73.6 273.96 74.85C276.04 76.1 278.43 76.72 281.13 76.72Z" fill="#FEFEFE"></path>
<path d="M310.76 83.5C309.62 83.5 308.67 83.12 307.91 82.37C307.16 81.62 306.78 80.67 306.78 79.52V44.74C306.78 43.54 307.16 42.58 307.91 41.85C308.66 41.12 309.61 40.76 310.76 40.76C311.91 40.76 312.92 41.12 313.65 41.85C314.38 42.58 314.74 43.54 314.74 44.74V79.52C314.74 80.66 314.38 81.61 313.65 82.37C312.92 83.12 311.96 83.5 310.76 83.5ZM342.81 83.5C341.67 83.5 340.72 83.12 339.96 82.37C339.21 81.62 338.83 80.67 338.83 79.52V60.34C338.83 57.38 338.28 54.96 337.19 53.09C336.1 51.22 334.63 49.83 332.78 48.92C330.93 48.01 328.82 47.56 326.43 47.56C324.25 47.56 322.27 48 320.5 48.89C318.73 49.77 317.33 50.96 316.29 52.44C315.25 53.92 314.73 55.62 314.73 57.55H309.82C309.82 54.28 310.61 51.35 312.2 48.78C313.78 46.21 315.95 44.17 318.71 42.66C321.46 41.15 324.56 40.4 327.99 40.4C331.42 40.4 334.79 41.17 337.62 42.7C340.45 44.23 342.69 46.48 344.33 49.45C345.97 52.41 346.79 56.05 346.79 60.37V79.55C346.79 80.69 346.41 81.64 345.66 82.4C344.91 83.16 343.96 83.53 342.81 83.53V83.5Z" fill="#FEFEFE"></path>
<path d="M372.36 83.73C368.04 83.73 364.21 82.81 360.86 80.96C357.51 79.12 354.88 76.57 352.98 73.32C351.08 70.07 350.13 66.34 350.13 62.13C350.13 57.92 351.03 54.11 352.82 50.86C354.61 47.61 357.1 45.06 360.27 43.22C363.44 41.38 367.08 40.45 371.19 40.45C375.3 40.45 378.73 41.35 381.64 43.14C384.55 44.93 386.77 47.4 388.31 50.55C389.84 53.7 390.61 57.32 390.61 61.43C390.61 62.42 390.27 63.24 389.6 63.89C388.92 64.54 388.07 64.86 387.03 64.86H355.61V58.62H386.8L383.6 60.8C383.55 58.2 383.03 55.88 382.04 53.82C381.05 51.77 379.65 50.14 377.83 48.95C376.01 47.76 373.8 47.16 371.2 47.16C368.24 47.16 365.7 47.81 363.6 49.11C361.49 50.41 359.9 52.19 358.8 54.45C357.71 56.71 357.16 59.27 357.16 62.13C357.16 64.99 357.81 67.54 359.11 69.77C360.41 72.01 362.2 73.77 364.49 75.07C366.78 76.37 369.4 77.02 372.37 77.02C373.98 77.02 375.63 76.72 377.32 76.12C379.01 75.52 380.37 74.83 381.41 74.05C382.19 73.48 383.03 73.18 383.94 73.15C384.85 73.12 385.64 73.4 386.32 73.97C387.2 74.75 387.67 75.61 387.72 76.54C387.77 77.48 387.36 78.28 386.47 78.96C384.7 80.36 382.51 81.51 379.88 82.39C377.25 83.27 374.75 83.72 372.36 83.72V83.73Z" fill="#FEFEFE"></path>
<path d="M397.08 67.91C395.94 67.91 394.99 67.53 394.23 66.78C393.48 66.03 393.1 65.08 393.1 63.93V26.5C393.1 25.3 393.48 24.34 394.23 23.61C394.98 22.88 395.93 22.52 397.08 22.52C398.23 22.52 399.24 22.88 399.97 23.61C400.7 24.34 401.06 25.3 401.06 26.5V63.93C401.06 65.07 400.7 66.02 399.97 66.78C399.24 67.53 398.28 67.91 397.08 67.91ZM397.08 83.5C395.94 83.5 394.99 83.12 394.23 82.37C393.48 81.62 393.1 80.67 393.1 79.52V44.74C393.1 43.54 393.48 42.58 394.23 41.85C394.98 41.12 395.93 40.76 397.08 40.76C398.23 40.76 399.24 41.12 399.97 41.85C400.7 42.58 401.06 43.54 401.06 44.74V79.52C401.06 80.66 400.7 81.61 399.97 82.37C399.24 83.12 398.28 83.5 397.08 83.5ZM429.13 83.5C427.99 83.5 427.04 83.12 426.28 82.37C425.53 81.62 425.15 80.67 425.15 79.52V60.34C425.15 57.38 424.6 54.96 423.51 53.09C422.42 51.22 420.95 49.83 419.1 48.92C417.25 48.01 415.14 47.56 412.75 47.56C410.57 47.56 408.59 48 406.82 48.89C405.05 49.77 403.65 50.96 402.61 52.44C401.57 53.92 401.05 55.62 401.05 57.55H396.14C396.14 54.28 396.93 51.35 398.52 48.78C400.1 46.21 402.27 44.17 405.03 42.66C407.78 41.15 410.88 40.4 414.31 40.4C417.74 40.4 421.11 41.17 423.94 42.7C426.77 44.23 429.01 46.48 430.65 49.45C432.29 52.41 433.11 56.05 433.11 60.37V79.55C433.11 80.69 432.73 81.64 431.98 82.4C431.23 83.16 430.28 83.53 429.13 83.53V83.5Z" fill="#FEFEFE"></path>
<path d="M458.06 83.73C453.85 83.73 450.13 82.81 446.91 80.96C443.69 79.12 441.15 76.57 439.31 73.32C437.46 70.07 436.54 66.34 436.54 62.13C436.54 57.92 437.46 54.11 439.31 50.86C441.15 47.61 443.69 45.06 446.91 43.22C450.13 41.38 453.85 40.45 458.06 40.45C462.27 40.45 465.91 41.37 469.13 43.22C472.35 45.07 474.89 47.61 476.73 50.86C478.57 54.11 479.5 57.87 479.5 62.13C479.5 66.39 478.59 70.07 476.77 73.32C474.95 76.57 472.43 79.12 469.21 80.96C465.99 82.81 462.27 83.73 458.06 83.73ZM458.06 76.72C460.76 76.72 463.15 76.1 465.23 74.85C467.31 73.6 468.93 71.89 470.1 69.7C471.27 67.52 471.85 65 471.85 62.14C471.85 59.28 471.27 56.75 470.1 54.54C468.93 52.33 467.31 50.6 465.23 49.35C463.15 48.1 460.76 47.48 458.06 47.48C455.36 47.48 452.97 48.1 450.89 49.35C448.81 50.6 447.17 52.33 445.98 54.54C444.78 56.75 444.19 59.28 444.19 62.14C444.19 65 444.79 67.52 445.98 69.7C447.18 71.88 448.81 73.6 450.89 74.85C452.97 76.1 455.36 76.72 458.06 76.72Z" fill="#FEFEFE"></path>
<path d="M501.64 83.81C498.05 83.81 494.84 83.04 492.01 81.51C489.18 79.98 486.94 77.73 485.3 74.76C483.66 71.8 482.84 68.16 482.84 63.84V44.66C482.84 43.52 483.22 42.57 483.97 41.81C484.72 41.06 485.67 40.68 486.82 40.68C487.97 40.68 488.91 41.06 489.67 41.81C490.42 42.56 490.8 43.51 490.8 44.66V63.84C490.8 66.75 491.35 69.16 492.44 71.05C493.53 72.95 495.01 74.35 496.88 75.26C498.75 76.17 500.86 76.62 503.2 76.62C505.54 76.62 507.42 76.18 509.16 75.29C510.9 74.41 512.29 73.21 513.33 71.7C514.37 70.19 514.89 68.5 514.89 66.63H519.8C519.8 69.85 519.01 72.76 517.42 75.36C515.83 77.96 513.68 80.01 510.95 81.52C508.22 83.03 505.11 83.78 501.63 83.78L501.64 83.81ZM518.88 83.42C517.74 83.42 516.79 83.04 516.03 82.29C515.28 81.54 514.9 80.59 514.9 79.44V44.66C514.9 43.46 515.28 42.5 516.03 41.78C516.78 41.05 517.73 40.69 518.88 40.69C520.03 40.69 521.04 41.05 521.76 41.78C522.49 42.51 522.85 43.47 522.85 44.66V79.44C522.85 80.58 522.49 81.53 521.76 82.29C521.03 83.04 520.07 83.42 518.88 83.42Z" fill="#FEFEFE"></path>
<path d="M544.76 83.73C541.12 83.73 537.75 83.17 534.66 82.05C531.57 80.93 529.16 79.52 527.45 77.8C526.67 76.97 526.34 76.02 526.48 74.95C526.61 73.88 527.12 73.01 528 72.34C529.04 71.51 530.07 71.16 531.08 71.29C532.09 71.42 532.96 71.87 533.69 72.65C534.57 73.64 535.99 74.56 537.94 75.42C539.89 76.28 542.06 76.71 544.45 76.71C547.46 76.71 549.76 76.22 551.35 75.23C552.93 74.24 553.75 72.97 553.81 71.41C553.86 69.85 553.12 68.5 551.59 67.35C550.06 66.21 547.26 65.27 543.21 64.54C537.96 63.5 534.15 61.94 531.79 59.86C529.42 57.78 528.24 55.23 528.24 52.22C528.24 49.57 529.02 47.37 530.58 45.63C532.14 43.89 534.14 42.59 536.58 41.73C539.02 40.87 541.57 40.44 544.22 40.44C547.65 40.44 550.69 40.99 553.34 42.08C555.99 43.17 558.1 44.68 559.66 46.6C560.39 47.43 560.73 48.3 560.67 49.21C560.62 50.12 560.18 50.89 559.34 51.51C558.51 52.08 557.52 52.26 556.38 52.06C555.24 51.85 554.27 51.39 553.5 50.66C552.2 49.41 550.8 48.55 549.29 48.09C547.78 47.62 546.04 47.39 544.07 47.39C541.78 47.39 539.85 47.78 538.26 48.56C536.67 49.34 535.88 50.48 535.88 51.99C535.88 52.93 536.13 53.77 536.62 54.52C537.11 55.27 538.09 55.95 539.54 56.55C541 57.15 543.13 57.73 545.93 58.3C549.83 59.08 552.91 60.07 555.17 61.26C557.43 62.46 559.06 63.85 560.04 65.43C561.03 67.02 561.52 68.85 561.52 70.93C561.52 73.32 560.88 75.48 559.61 77.4C558.34 79.32 556.46 80.86 554 82C551.53 83.14 548.45 83.71 544.76 83.71V83.73Z" fill="#FEFEFE"></path>
<path d="M583.99 83.73C579.67 83.73 575.84 82.81 572.49 80.96C569.14 79.12 566.51 76.57 564.61 73.32C562.71 70.07 561.76 66.34 561.76 62.13C561.76 57.92 562.66 54.11 564.45 50.86C566.24 47.61 568.73 45.06 571.9 43.22C575.07 41.38 578.71 40.45 582.82 40.45C586.93 40.45 590.36 41.35 593.27 43.14C596.18 44.93 598.4 47.4 599.94 50.55C601.47 53.7 602.24 57.32 602.24 61.43C602.24 62.42 601.9 63.24 601.23 63.89C600.55 64.54 599.7 64.86 598.66 64.86H567.24V58.62H598.43L595.23 60.8C595.18 58.2 594.66 55.88 593.67 53.82C592.68 51.77 591.28 50.14 589.46 48.95C587.64 47.76 585.43 47.16 582.83 47.16C579.87 47.16 577.33 47.81 575.23 49.11C573.12 50.41 571.53 52.19 570.43 54.45C569.34 56.71 568.79 59.27 568.79 62.13C568.79 64.99 569.44 67.54 570.74 69.77C572.04 72.01 573.83 73.77 576.12 75.07C578.41 76.37 581.03 77.02 584 77.02C585.61 77.02 587.26 76.72 588.95 76.12C590.64 75.52 592 74.83 593.04 74.05C593.82 73.48 594.66 73.18 595.57 73.15C596.48 73.12 597.27 73.4 597.95 73.97C598.83 74.75 599.3 75.61 599.35 76.54C599.4 77.48 598.99 78.28 598.1 78.96C596.33 80.36 594.14 81.51 591.51 82.39C588.88 83.27 586.38 83.72 583.99 83.72V83.73Z" fill="#FEFEFE"></path>
<path d="M620.59 98.4C620.04 98.4 619.58 98.22 619.21 97.86C618.84 97.5 618.67 97.04 618.67 96.48V65.57C618.75 62.2 619.58 59.2 621.13 56.58C622.68 53.96 624.81 51.88 627.5 50.34C630.19 48.8 633.2 48.04 636.52 48.04C639.84 48.04 642.99 48.82 645.7 50.38C648.41 51.94 650.54 54.07 652.1 56.78C653.66 59.49 654.44 62.55 654.44 65.96C654.44 69.37 653.66 72.37 652.1 75.08C650.54 77.79 648.41 79.92 645.7 81.48C642.99 83.04 639.93 83.82 636.52 83.82C633.45 83.82 630.69 83.16 628.23 81.84C625.78 80.52 623.87 78.75 622.5 76.53V96.5C622.5 97.05 622.33 97.51 621.99 97.88C621.65 98.24 621.18 98.42 620.58 98.42L620.59 98.4ZM636.53 80.22C639.22 80.22 641.62 79.59 643.73 78.33C645.84 77.07 647.52 75.37 648.75 73.21C649.99 71.06 650.61 68.63 650.61 65.95C650.61 63.27 649.99 60.78 648.75 58.62C647.51 56.47 645.84 54.76 643.73 53.5C641.62 52.24 639.22 51.61 636.53 51.61C633.84 51.61 631.49 52.24 629.36 53.5C627.23 54.76 625.55 56.47 624.34 58.62C623.12 60.77 622.52 63.22 622.52 65.95C622.52 68.68 623.13 71.06 624.34 73.21C625.56 75.37 627.23 77.07 629.36 78.33C631.49 79.59 633.88 80.22 636.53 80.22Z" fill="#FEFEFE"></path>
<path d="M659.7 83.42C659.15 83.42 658.69 83.24 658.32 82.88C657.96 82.52 657.78 82.06 657.78 81.5V50.33C657.78 49.73 657.96 49.26 658.32 48.92C658.68 48.58 659.14 48.41 659.7 48.41C660.3 48.41 660.77 48.58 661.11 48.92C661.45 49.26 661.62 49.73 661.62 50.33V81.5C661.62 82.05 661.45 82.51 661.11 82.88C660.77 83.24 660.3 83.42 659.7 83.42ZM659.06 62.05C659.32 59.32 660.06 56.9 661.3 54.79C662.54 52.68 664.14 51.03 666.1 49.83C668.06 48.64 670.24 48.04 672.63 48.04C674.25 48.04 675.51 48.23 676.41 48.62C677.31 49 677.65 49.69 677.43 50.67C677.3 51.31 677 51.69 676.53 51.82C676.06 51.95 675.49 51.96 674.83 51.85C674.17 51.74 673.43 51.69 672.62 51.69C670.49 51.69 668.59 52.14 666.92 53.03C665.25 53.92 663.96 55.15 663.02 56.71C662.08 58.27 661.61 60.05 661.61 62.05H659.05H659.06Z" fill="#FEFEFE"></path>
<path d="M692.98 83.81C689.57 83.81 686.51 83.03 683.8 81.47C681.09 79.91 678.96 77.78 677.4 75.07C675.84 72.36 675.06 69.32 675.06 65.95C675.06 62.58 675.84 59.48 677.4 56.77C678.96 54.06 681.09 51.93 683.8 50.37C686.51 48.81 689.57 48.03 692.98 48.03C696.39 48.03 699.44 48.81 702.13 50.37C704.82 51.93 706.94 54.06 708.5 56.77C710.06 59.48 710.84 62.54 710.84 65.95C710.84 69.36 710.06 72.36 708.5 75.07C706.94 77.78 704.82 79.91 702.13 81.47C699.44 83.03 696.39 83.81 692.98 83.81ZM692.98 80.22C695.67 80.22 698.07 79.59 700.18 78.33C702.29 77.07 703.96 75.37 705.17 73.21C706.38 71.06 706.99 68.61 706.99 65.88C706.99 63.15 706.38 60.77 705.17 58.62C703.95 56.47 702.29 54.76 700.18 53.5C698.07 52.24 695.67 51.61 692.98 51.61C690.29 51.61 687.94 52.24 685.81 53.5C683.68 54.76 681.99 56.47 680.76 58.62C679.52 60.77 678.9 63.22 678.9 65.95C678.9 68.68 679.52 71.06 680.76 73.21C682 75.37 683.68 77.07 685.81 78.33C687.94 79.59 690.33 80.22 692.98 80.22Z" fill="#FEFEFE"></path>
<path d="M704.62 98.4C704.07 98.4 703.6 98.22 703.21 97.86C702.82 97.5 702.63 97.04 702.63 96.48C702.63 95.88 702.82 95.4 703.21 95.04C703.59 94.68 704.06 94.5 704.62 94.5C706.8 94.5 708.7 94.03 710.35 93.09C711.99 92.15 713.28 90.85 714.22 89.19C715.16 87.53 715.63 85.63 715.63 83.49V50.34C715.63 49.74 715.81 49.27 716.17 48.93C716.53 48.59 716.99 48.42 717.55 48.42C718.15 48.42 718.63 48.59 718.99 48.93C719.35 49.27 719.53 49.74 719.53 50.34V83.49C719.53 86.39 718.89 88.96 717.61 91.2C716.33 93.44 714.57 95.2 712.33 96.48C710.09 97.76 707.52 98.4 704.62 98.4ZM717.49 41.05C716.68 41.05 715.99 40.76 715.41 40.19C714.83 39.62 714.55 38.9 714.55 38.05C714.55 37.07 714.86 36.33 715.48 35.84C716.1 35.35 716.79 35.1 717.56 35.1C718.28 35.1 718.96 35.35 719.58 35.84C720.2 36.33 720.51 37.07 720.51 38.05C720.51 38.9 720.22 39.62 719.65 40.19C719.08 40.76 718.36 41.05 717.51 41.05H717.49Z" fill="#FEFEFE"></path>
<path d="M738.99 83.74C735.62 83.74 732.62 82.98 730 81.47C727.38 79.96 725.32 77.85 723.82 75.17C722.33 72.48 721.58 69.41 721.58 65.95C721.58 62.49 722.29 59.37 723.69 56.7C725.1 54.03 727.04 51.93 729.51 50.4C731.98 48.86 734.82 48.1 738.02 48.1C741.22 48.1 743.97 48.84 746.4 50.31C748.83 51.78 750.73 53.81 752.1 56.39C753.47 58.97 754.15 61.95 754.15 65.32C754.15 65.87 753.98 66.31 753.64 66.63C753.3 66.95 752.85 67.11 752.3 67.11H724.14V63.78H753.32L750.5 65.89C750.59 63.12 750.12 60.66 749.09 58.53C748.06 56.4 746.6 54.72 744.71 53.51C742.81 52.29 740.58 51.69 738.02 51.69C735.46 51.69 733.42 52.3 731.52 53.51C729.62 54.73 728.13 56.4 727.04 58.53C725.95 60.66 725.41 63.14 725.41 65.95C725.41 68.76 725.99 71.18 727.14 73.31C728.29 75.44 729.89 77.12 731.94 78.33C733.99 79.55 736.33 80.15 738.98 80.15C740.64 80.15 742.32 79.86 744.01 79.29C745.69 78.71 747.03 77.96 748.01 77.02C748.35 76.68 748.77 76.5 749.26 76.48C749.75 76.46 750.17 76.6 750.51 76.9C750.98 77.28 751.22 77.71 751.25 78.18C751.27 78.65 751.07 79.08 750.64 79.46C749.27 80.7 747.49 81.72 745.3 82.53C743.1 83.34 741 83.75 739 83.75L738.99 83.74Z" fill="#FEFEFE"></path>
<path d="M770.42 83.81C767.09 83.81 764.12 83.02 761.49 81.44C758.87 79.86 756.79 77.73 755.28 75.04C753.76 72.35 753.01 69.32 753.01 65.95C753.01 62.58 753.71 59.49 755.12 56.8C756.53 54.11 758.47 51.99 760.94 50.43C763.41 48.87 766.25 48.09 769.45 48.09C772.18 48.09 774.68 48.61 776.94 49.66C779.2 50.71 781.16 52.29 782.83 54.43C783.17 54.86 783.3 55.31 783.21 55.77C783.12 56.24 782.85 56.62 782.38 56.92C782 57.22 781.57 57.34 781.1 57.27C780.63 57.21 780.22 56.96 779.88 56.53C777.15 53.29 773.67 51.67 769.45 51.67C766.93 51.67 764.72 52.29 762.83 53.53C760.93 54.77 759.46 56.45 758.41 58.59C757.36 60.72 756.84 63.18 756.84 65.95C756.84 68.72 757.42 71.06 758.57 73.21C759.72 75.37 761.31 77.07 763.34 78.33C765.37 79.59 767.72 80.22 770.41 80.22C772.16 80.22 773.81 79.96 775.37 79.45C776.93 78.94 778.28 78.15 779.43 77.08C779.81 76.74 780.24 76.55 780.71 76.5C781.18 76.46 781.59 76.61 781.93 76.95C782.36 77.33 782.58 77.77 782.6 78.26C782.62 78.75 782.44 79.17 782.06 79.51C778.94 82.37 775.06 83.8 770.41 83.8L770.42 83.81Z" fill="#FEFEFE"></path>
<path d="M783.85 53.15C783.34 53.15 782.92 52.99 782.6 52.67C782.28 52.35 782.12 51.93 782.12 51.42C782.12 50.91 782.28 50.49 782.6 50.17C782.92 49.85 783.34 49.69 783.85 49.69H801.19C801.7 49.69 802.12 49.85 802.44 50.17C802.76 50.49 802.92 50.91 802.92 51.42C802.92 51.93 802.76 52.35 802.44 52.67C802.12 52.99 801.71 53.15 801.19 53.15H783.85ZM800.94 83.42C798.59 83.38 796.5 82.83 794.67 81.79C792.84 80.75 791.41 79.29 790.38 77.44C789.35 75.58 788.84 73.48 788.84 71.14V39.27C788.84 38.67 789.02 38.19 789.38 37.83C789.74 37.47 790.2 37.29 790.76 37.29C791.36 37.29 791.84 37.47 792.2 37.83C792.56 38.19 792.74 38.67 792.74 39.27V71.14C792.74 73.61 793.51 75.63 795.04 77.19C796.58 78.75 798.56 79.53 800.99 79.53H802.4C803 79.53 803.48 79.71 803.84 80.07C804.2 80.43 804.38 80.91 804.38 81.51C804.38 82.06 804.2 82.52 803.84 82.89C803.48 83.25 803 83.43 802.4 83.43H800.93L800.94 83.42Z" fill="#FEFEFE"></path>
<path d="M85.57 48.32C98.7309 48.32 109.4 37.6509 109.4 24.49C109.4 11.3291 98.7309 0.660004 85.57 0.660004C72.409 0.660004 61.74 11.3291 61.74 24.49C61.74 37.6509 72.409 48.32 85.57 48.32Z" fill="#FEFEFE"></path>
<path d="M101.68 58.8H68.65C64.2317 58.8 60.65 62.3817 60.65 66.8V99.44C60.65 103.858 64.2317 107.44 68.65 107.44H101.68C106.098 107.44 109.68 103.858 109.68 99.44V66.8C109.68 62.3817 106.098 58.8 101.68 58.8Z" fill="#FEFEFE"></path>
<path d="M0 103.12V64.21C0 61.31 2.35 58.96 5.25 58.96H44.16C47.27 58.96 49.74 61.65 49.39 64.74C46.74 87.58 28.62 105.7 5.78 108.35C2.69 108.71 0 106.24 0 103.12Z" fill="#FEFEFE"></path>
<path d="M49.67 42.25V7.00001C49.67 0.790006 42.17 -2.32999 37.77 2.04001L2.23002 37.29C-2.19998 41.68 0.910024 49.23 7.15002 49.23H42.69C46.55 49.23 49.67 46.1 49.67 42.25Z" fill="#FEFEFE"></path>
</g>
<defs>
<clipPath id="clip0_196_100">
<rect width="804.4" height="108.39" fill="white"></rect>
</clipPath>
</defs>
</svg>