<svg width="408" height="126" viewBox="0 0 408 126" fill="none" xmlns="http://www.w3.org/2000/svg">
<g clip-path="url(#clip0_202_85)">
<path d="M141.083 14.371C140.633 14.371 140.26 14.231 139.958 13.944C139.655 13.657 139.508 13.307 139.508 12.894C139.508 12.446 139.655 12.082 139.958 11.795C140.26 11.515 140.633 11.368 141.083 11.368H152.564C153.014 11.368 153.387 11.508 153.689 11.795C153.992 12.082 154.139 12.446 154.139 12.894C154.139 13.314 153.992 13.664 153.689 13.944C153.387 14.231 153.014 14.371 152.564 14.371H141.083ZM152.289 34.979C150.7 34.979 149.279 34.608 148.034 33.859C146.788 33.11 145.804 32.088 145.086 30.793C144.369 29.491 144.003 28.007 144.003 26.334V4.42403C144.003 3.91303 144.158 3.50003 144.474 3.17103C144.791 2.84203 145.199 2.68103 145.712 2.68103C146.226 2.68103 146.641 2.84203 146.971 3.17103C147.302 3.50003 147.464 3.92003 147.464 4.42403V26.334C147.464 27.86 147.914 29.106 148.814 30.072C149.715 31.045 150.868 31.528 152.282 31.528H153.499C153.978 31.528 154.372 31.689 154.667 32.018C154.962 32.347 155.117 32.767 155.117 33.271C155.117 33.775 154.934 34.188 154.576 34.503C154.217 34.818 153.767 34.972 153.225 34.972H152.282L152.289 34.979Z" fill="#5B6972"></path>
<path d="M158.1 24.99C157.558 24.99 157.129 24.829 156.82 24.5C156.503 24.171 156.348 23.751 156.348 23.247V1.743C156.348 1.204 156.503 0.776999 156.82 0.468999C157.136 0.153999 157.565 0 158.1 0C158.613 0 159.021 0.153999 159.338 0.468999C159.654 0.783999 159.809 1.211 159.809 1.743V23.247C159.809 23.758 159.654 24.171 159.338 24.5C159.021 24.829 158.613 24.99 158.1 24.99ZM158.1 34.979C157.558 34.979 157.129 34.825 156.82 34.51C156.503 34.195 156.348 33.789 156.348 33.278V12.222C156.348 11.683 156.503 11.256 156.82 10.948C157.136 10.633 157.565 10.479 158.1 10.479C158.613 10.479 159.021 10.633 159.338 10.948C159.654 11.263 159.809 11.69 159.809 12.222V33.278C159.809 33.789 159.654 34.195 159.338 34.51C159.021 34.825 158.613 34.979 158.1 34.979ZM177.459 34.979C176.945 34.979 176.53 34.818 176.2 34.489C175.869 34.16 175.707 33.761 175.707 33.278V21.63C175.707 19.775 175.355 18.256 174.652 17.059C173.949 15.862 172.985 14.966 171.768 14.371C170.551 13.776 169.179 13.475 167.646 13.475C166.112 13.475 164.846 13.762 163.664 14.329C162.475 14.896 161.54 15.673 160.85 16.66C160.161 17.647 159.816 18.767 159.816 20.02H157.34C157.396 18.137 157.91 16.457 158.874 14.98C159.837 13.503 161.111 12.334 162.7 11.487C164.29 10.633 166.063 10.213 168.011 10.213C170.143 10.213 172.049 10.654 173.73 11.536C175.412 12.418 176.741 13.706 177.712 15.414C178.69 17.115 179.175 19.194 179.175 21.644V33.292C179.175 33.768 179.006 34.174 178.683 34.503C178.359 34.832 177.944 34.993 177.466 34.993L177.459 34.979Z" fill="#5B6972"></path>
<path d="M193.575 35.203C191.141 35.203 188.988 34.671 187.117 33.614C185.239 32.557 183.769 31.08 182.707 29.204C181.644 27.321 181.11 25.172 181.11 22.75C181.11 20.328 181.609 18.144 182.615 16.275C183.621 14.406 185.007 12.936 186.779 11.865C188.552 10.794 190.592 10.255 192.899 10.255C195.207 10.255 197.169 10.773 198.865 11.802C200.56 12.831 201.875 14.259 202.804 16.079C203.733 17.899 204.197 19.978 204.197 22.309C204.197 22.785 204.049 23.17 203.747 23.45C203.444 23.737 203.057 23.877 202.579 23.877H183.445V21.007H202.938L201.003 22.393C201.031 20.664 200.715 19.11 200.061 17.731C199.399 16.359 198.464 15.281 197.247 14.504C196.03 13.727 194.581 13.342 192.899 13.342C191.218 13.342 189.685 13.748 188.397 14.553C187.103 15.358 186.111 16.471 185.401 17.892C184.697 19.313 184.346 20.93 184.346 22.75C184.346 24.57 184.746 26.187 185.541 27.587C186.336 28.994 187.427 30.093 188.805 30.905C190.184 31.71 191.774 32.116 193.575 32.116C194.658 32.116 195.741 31.927 196.839 31.556C197.936 31.185 198.808 30.716 199.47 30.142C199.8 29.876 200.173 29.729 200.595 29.715C201.017 29.701 201.376 29.813 201.679 30.051C202.065 30.408 202.269 30.8 202.283 31.213C202.298 31.633 202.129 31.99 201.763 32.291C200.771 33.131 199.512 33.824 197.978 34.377C196.445 34.93 194.975 35.203 193.568 35.203H193.575Z" fill="#5B6972"></path>
<path d="M152.546 80.6015C149.237 80.6015 146.313 79.8723 143.782 78.4062C141.252 76.948 139.255 74.927 137.809 72.3514C136.355 69.7757 135.632 66.8196 135.632 63.4832C135.632 60.1467 136.355 57.1272 137.809 54.5515C139.255 51.9759 141.252 49.9549 143.782 48.4967C146.313 47.0385 149.237 46.3015 152.546 46.3015C155.855 46.3015 158.716 47.0306 161.247 48.4967C163.778 49.9629 165.774 51.9759 167.22 54.5515C168.666 57.1272 169.397 60.107 169.397 63.4832C169.397 66.8593 168.682 69.7757 167.252 72.3514C165.821 74.927 163.841 76.948 161.31 78.4062C158.779 79.8723 155.855 80.6015 152.546 80.6015ZM152.546 75.0459C154.668 75.0459 156.547 74.5546 158.182 73.5639C159.816 72.5733 161.09 71.2181 162.009 69.4825C162.929 67.7548 163.385 65.7577 163.385 63.4911C163.385 61.2245 162.929 59.2194 162.009 57.468C161.09 55.7165 159.816 54.3455 158.182 53.3548C156.547 52.3642 154.668 51.8728 152.546 51.8728C150.424 51.8728 148.545 52.3642 146.911 53.3548C145.276 54.3455 143.987 55.7165 143.051 57.468C142.108 59.2194 141.645 61.2245 141.645 63.4911C141.645 65.7577 142.116 67.7548 143.051 69.4825C143.995 71.2102 145.276 72.5733 146.911 73.5639C148.545 74.5546 150.424 75.0459 152.546 75.0459Z" fill="#5B6972"></path>
<path d="M176.064 80.5776C175.162 80.5776 174.41 80.2754 173.809 79.6789C173.215 79.0825 172.915 78.327 172.915 77.4124V49.7529C172.915 48.7986 173.215 48.0351 173.809 47.4546C174.402 46.874 175.154 46.5877 176.064 46.5877C176.973 46.5877 177.772 46.874 178.35 47.4546C178.928 48.0351 179.212 48.7986 179.212 49.7529V77.4124C179.212 78.319 178.928 79.0745 178.35 79.6789C177.772 80.2754 177.013 80.5776 176.064 80.5776ZM201.421 80.5776C200.519 80.5776 199.767 80.2754 199.166 79.6789C198.573 79.0825 198.272 78.327 198.272 77.4124V62.1591C198.272 59.8051 197.837 57.8806 196.974 56.3934C196.112 54.9063 194.949 53.8008 193.485 53.0772C192.022 52.3535 190.352 51.9956 188.461 51.9956C186.737 51.9956 185.17 52.3455 183.77 53.0533C182.369 53.7531 181.262 54.6995 180.439 55.8765C179.616 57.0535 179.205 58.4055 179.205 59.9403H175.32C175.32 57.3398 175.945 55.0097 177.203 52.9658C178.453 50.922 180.17 49.2996 182.353 48.0988C184.529 46.8979 186.982 46.3015 189.696 46.3015C192.409 46.3015 195.076 46.9138 197.315 48.1306C199.554 49.3473 201.326 51.1367 202.623 53.4986C203.921 55.8526 204.57 58.7474 204.57 62.183V77.4363C204.57 78.3429 204.269 79.0984 203.676 79.7028C203.082 80.3072 202.331 80.6015 201.421 80.6015V80.5776Z" fill="#5B6972"></path>
<path d="M225.154 80.6015C221.7 80.6015 218.639 79.8723 215.961 78.4062C213.283 76.948 211.181 74.927 209.662 72.3514C208.143 69.7757 207.384 66.8196 207.384 63.4832C207.384 60.1467 208.103 57.1272 209.534 54.5515C210.965 51.9759 212.955 49.9549 215.489 48.4967C218.023 47.0385 220.933 46.3015 224.218 46.3015C227.504 46.3015 230.246 47.0147 232.572 48.4333C234.898 49.8519 236.673 51.8094 237.904 54.3058C239.127 56.8023 239.742 59.6712 239.742 62.9284C239.742 63.713 239.47 64.3628 238.935 64.878C238.391 65.3931 237.712 65.6467 236.88 65.6467H211.764V60.7014H236.697L234.139 62.4291C234.099 60.3686 233.683 58.5299 232.892 56.8974C232.1 55.2727 230.981 53.9809 229.526 53.0378C228.071 52.0947 226.305 51.6192 224.226 51.6192C221.86 51.6192 219.83 52.1344 218.151 53.1646C216.464 54.1949 215.193 55.6056 214.314 57.3966C213.443 59.1877 213.003 61.2166 213.003 63.4832C213.003 65.7497 213.523 67.7706 214.562 69.538C215.601 71.3132 217.032 72.708 218.863 73.7383C220.693 74.7685 222.788 75.2837 225.162 75.2837C226.449 75.2837 227.768 75.0459 229.119 74.5704C230.469 74.0949 231.557 73.5481 232.388 72.9299C233.012 72.4782 233.683 72.2404 234.41 72.2167C235.138 72.1929 235.769 72.4148 236.313 72.8665C237.016 73.4847 237.392 74.1662 237.432 74.9033C237.472 75.6482 237.144 76.2822 236.433 76.8212C235.018 77.9307 233.267 78.8421 231.165 79.5395C229.063 80.2369 227.064 80.5935 225.154 80.5935V80.6015Z" fill="#5B6972"></path>
<path d="M245.001 68.2276C244.099 68.2276 243.348 67.9268 242.747 67.333C242.153 66.7392 241.853 65.9872 241.853 65.0767V35.4523C241.853 34.5023 242.153 33.7423 242.747 33.1644C243.34 32.5865 244.092 32.3015 245.001 32.3015C245.911 32.3015 246.71 32.5865 247.288 33.1644C247.866 33.7423 248.15 34.5023 248.15 35.4523V65.0847C248.15 65.9872 247.866 66.7392 247.288 67.3409C246.71 67.9347 245.951 68.2355 245.001 68.2355V68.2276ZM245.001 80.5777C244.099 80.5777 243.348 80.2769 242.747 79.6831C242.153 79.0894 241.853 78.3373 241.853 77.4268V49.8924C241.853 48.9424 242.153 48.1824 242.747 47.6045C243.34 47.0266 244.092 46.7416 245.001 46.7416C245.911 46.7416 246.71 47.0266 247.288 47.6045C247.866 48.1824 248.15 48.9424 248.15 49.8924V77.4268C248.15 78.3293 247.866 79.0814 247.288 79.6831C246.71 80.2769 245.951 80.5777 245.001 80.5777ZM270.359 80.5777C269.457 80.5777 268.705 80.2769 268.104 79.6831C267.511 79.0894 267.21 78.3373 267.21 77.4268V62.2425C267.21 59.8992 266.775 57.9833 265.912 56.5029C265.05 55.0225 263.887 53.9221 262.423 53.2016C260.96 52.4812 259.29 52.125 257.399 52.125C255.674 52.125 254.108 52.4733 252.708 53.1779C251.307 53.8746 250.2 54.8166 249.377 55.9883C248.554 57.16 248.142 58.5058 248.142 60.0338H244.258C244.258 57.445 244.883 55.1254 246.141 53.0908C247.391 51.0562 249.108 49.4412 251.291 48.2458C253.467 47.0503 255.92 46.4566 258.634 46.4566C261.347 46.4566 264.014 47.0662 266.253 48.2774C268.492 49.4887 270.264 51.2699 271.561 53.6212C272.859 55.9646 273.508 58.8463 273.508 62.2663V77.4506C273.508 78.3531 273.207 79.1052 272.614 79.7069C272.02 80.3085 271.269 80.6015 270.359 80.6015V80.5777Z" fill="#5B6972"></path>
<path d="M293.236 80.6015C289.927 80.6015 287.003 79.8723 284.472 78.4062C281.941 76.948 279.945 74.927 278.499 72.3514C277.045 69.7757 276.322 66.8196 276.322 63.4832C276.322 60.1467 277.045 57.1272 278.499 54.5515C279.945 51.9759 281.941 49.9549 284.472 48.4967C287.003 47.0385 289.927 46.3015 293.236 46.3015C296.545 46.3015 299.406 47.0306 301.936 48.4967C304.467 49.9629 306.464 51.9759 307.91 54.5515C309.356 57.1272 310.087 60.107 310.087 63.4832C310.087 66.8593 309.372 69.7757 307.941 72.3514C306.511 74.927 304.53 76.948 301.999 78.4062C299.468 79.8723 296.545 80.6015 293.236 80.6015ZM293.236 75.0459C295.358 75.0459 297.236 74.5546 298.871 73.5639C300.506 72.5733 301.779 71.2181 302.699 69.4825C303.618 67.7548 304.074 65.7577 304.074 63.4911C304.074 61.2245 303.618 59.2194 302.699 57.468C301.779 55.7165 300.506 54.3455 298.871 53.3548C297.236 52.3642 295.358 51.8728 293.236 51.8728C291.114 51.8728 289.235 52.3642 287.6 53.3548C285.965 54.3455 284.676 55.7165 283.741 57.468C282.798 59.2194 282.334 61.2245 282.334 63.4911C282.334 65.7577 282.806 67.7548 283.741 69.4825C284.684 71.2102 285.965 72.5733 287.6 73.5639C289.235 74.5546 291.114 75.0459 293.236 75.0459Z" fill="#5B6972"></path>
<path d="M327.775 80.6015C324.935 80.6015 322.395 80.0016 320.156 78.8097C317.917 77.6177 316.145 75.8649 314.847 73.5512C313.55 71.2374 312.901 68.4095 312.901 65.044V50.102C312.901 49.2139 313.201 48.4739 313.795 47.8818C314.388 47.2975 315.14 47.0015 316.05 47.0015C316.96 47.0015 317.703 47.2975 318.305 47.8818C318.898 48.4661 319.199 49.2061 319.199 50.102V65.044C319.199 67.311 319.634 69.1885 320.496 70.6609C321.359 72.1411 322.53 73.2317 324.009 73.9407C325.489 74.6496 327.158 75.0002 329.009 75.0002C330.861 75.0002 332.348 74.6574 333.725 73.964C335.101 73.2785 336.201 72.3436 337.024 71.1673C337.847 69.9909 338.258 68.6744 338.258 67.2176H342.143C342.143 69.7261 341.518 71.9931 340.26 74.0186C339.002 76.0441 337.301 77.6411 335.141 78.8175C332.981 79.9938 330.52 80.5781 327.767 80.5781L327.775 80.6015ZM341.415 80.2976C340.513 80.2976 339.761 80.0016 339.16 79.4173C338.567 78.833 338.266 78.093 338.266 77.1971V50.102C338.266 49.1672 338.567 48.4193 339.16 47.8584C339.754 47.2897 340.505 47.0093 341.415 47.0093C342.325 47.0093 343.124 47.2897 343.694 47.8584C344.271 48.4271 344.556 49.175 344.556 50.102V77.1971C344.556 78.0852 344.271 78.8253 343.694 79.4173C343.116 80.0016 342.357 80.2976 341.415 80.2976Z" fill="#5B6972"></path>
<path d="M362.061 80.6015C359.141 80.6015 356.437 80.1577 353.958 79.2703C351.479 78.3829 349.545 77.2657 348.173 75.9029C347.547 75.2453 347.283 74.4926 347.395 73.6448C347.499 72.797 347.908 72.1077 348.614 71.5768C349.449 70.9192 350.275 70.6419 351.086 70.7449C351.896 70.8479 352.594 71.2044 353.18 71.8224C353.886 72.6068 355.025 73.3358 356.589 74.0172C358.154 74.6986 359.895 75.0393 361.812 75.0393C364.227 75.0393 366.073 74.651 367.348 73.8666C368.616 73.0822 369.274 72.076 369.322 70.8399C369.362 69.6039 368.768 68.5343 367.541 67.6231C366.313 66.7198 364.067 65.975 360.818 65.3966C356.605 64.5726 353.549 63.3366 351.655 61.6885C349.754 60.0405 348.807 58.02 348.807 55.6351C348.807 53.5354 349.433 51.7923 350.684 50.4137C351.936 49.035 353.541 48.005 355.498 47.3236C357.456 46.6422 359.502 46.3015 361.628 46.3015C364.38 46.3015 366.819 46.7372 368.945 47.6009C371.071 48.4645 372.764 49.6609 374.015 51.1822C374.601 51.8398 374.874 52.5292 374.826 53.2502C374.786 53.9712 374.433 54.5813 373.759 55.0726C373.093 55.5242 372.298 55.6668 371.384 55.5083C370.469 55.3419 369.691 54.9775 369.073 54.3991C368.03 53.4087 366.907 52.7273 365.695 52.3628C364.484 51.9904 363.088 51.8082 361.507 51.8082C359.67 51.8082 358.122 52.1172 356.846 52.7352C355.57 53.3532 354.937 54.2565 354.937 55.4529C354.937 56.1977 355.137 56.8632 355.53 57.4575C355.923 58.0517 356.71 58.5905 357.873 59.0659C359.044 59.5413 360.753 60.0009 363 60.4525C366.129 61.0705 368.6 61.8549 370.413 62.7978C372.226 63.7486 373.534 64.8499 374.32 66.1018C375.115 67.3616 375.508 68.8116 375.508 70.4596C375.508 72.3533 374.994 74.0647 373.975 75.586C372.956 77.1073 371.448 78.3275 369.474 79.2307C367.493 80.134 365.022 80.5856 362.061 80.5856V80.6015Z" fill="#5B6972"></path>
<path d="M393.278 80.6015C389.824 80.6015 386.763 79.8723 384.085 78.4062C381.407 76.948 379.305 74.927 377.786 72.3514C376.267 69.7757 375.508 66.8196 375.508 63.4832C375.508 60.1467 376.227 57.1272 377.658 54.5515C379.089 51.9759 381.079 49.9549 383.613 48.4967C386.147 47.0385 389.057 46.3015 392.343 46.3015C395.628 46.3015 398.37 47.0147 400.696 48.4333C403.022 49.8519 404.797 51.8094 406.028 54.3058C407.251 56.8023 407.866 59.6712 407.866 62.9284C407.866 63.713 407.595 64.3628 407.059 64.878C406.515 65.3931 405.836 65.6467 405.005 65.6467H379.888V60.7014H404.821L402.263 62.4291C402.223 60.3686 401.807 58.5299 401.016 56.8974C400.224 55.2727 399.105 53.9809 397.65 53.0378C396.196 52.0947 394.429 51.6192 392.351 51.6192C389.984 51.6192 387.954 52.1344 386.275 53.1646C384.589 54.1949 383.318 55.6056 382.438 57.3966C381.567 59.1877 381.127 61.2166 381.127 63.4832C381.127 65.7497 381.647 67.7706 382.686 69.538C383.725 71.3132 385.156 72.708 386.987 73.7383C388.817 74.7685 390.912 75.2837 393.286 75.2837C394.573 75.2837 395.892 75.0459 397.243 74.5704C398.594 74.0949 399.681 73.5481 400.512 72.9299C401.136 72.4782 401.807 72.2404 402.535 72.2167C403.262 72.1929 403.893 72.4148 404.437 72.8665C405.14 73.4847 405.516 74.1662 405.556 74.9033C405.596 75.6482 405.268 76.2822 404.557 76.8212C403.142 77.9307 401.391 78.8421 399.289 79.5395C397.187 80.2369 395.188 80.5935 393.278 80.5935V80.6015Z" fill="#5B6972"></path>
<path d="M140.633 129.01C140.247 129.01 139.923 128.884 139.663 128.632C139.402 128.38 139.283 128.058 139.283 127.666V106.029C139.339 103.67 139.923 101.57 141.013 99.736C142.104 97.902 143.602 96.446 145.494 95.368C147.386 94.29 149.504 93.758 151.839 93.758C154.175 93.758 156.391 94.304 158.297 95.396C160.203 96.488 161.702 97.979 162.799 99.876C163.896 101.773 164.445 103.915 164.445 106.302C164.445 108.689 163.896 110.789 162.799 112.686C161.702 114.583 160.203 116.074 158.297 117.166C156.391 118.258 154.238 118.804 151.839 118.804C149.68 118.804 147.738 118.342 146.008 117.418C144.284 116.494 142.941 115.255 141.977 113.701V127.68C141.977 128.065 141.857 128.387 141.618 128.646C141.379 128.898 141.048 129.024 140.626 129.024L140.633 129.01ZM151.846 116.284C153.739 116.284 155.427 115.843 156.911 114.961C158.395 114.079 159.577 112.889 160.442 111.377C161.315 109.872 161.751 108.171 161.751 106.295C161.751 104.419 161.315 102.676 160.442 101.164C159.57 99.659 158.395 98.462 156.911 97.58C155.427 96.698 153.739 96.257 151.846 96.257C149.954 96.257 148.301 96.698 146.803 97.58C145.304 98.462 144.123 99.659 143.271 101.164C142.413 102.669 141.991 104.384 141.991 106.295C141.991 108.206 142.42 109.872 143.271 111.377C144.13 112.889 145.304 114.079 146.803 114.961C148.301 115.843 149.982 116.284 151.846 116.284Z" fill="#5B6972"></path>
<path d="M168.145 118.524C167.758 118.524 167.435 118.398 167.174 118.146C166.921 117.894 166.795 117.572 166.795 117.18V95.361C166.795 94.941 166.921 94.612 167.174 94.374C167.428 94.136 167.751 94.017 168.145 94.017C168.567 94.017 168.898 94.136 169.137 94.374C169.376 94.612 169.496 94.941 169.496 95.361V117.18C169.496 117.565 169.376 117.887 169.137 118.146C168.898 118.398 168.567 118.524 168.145 118.524ZM167.695 103.565C167.878 101.654 168.398 99.96 169.271 98.483C170.143 97.006 171.269 95.851 172.647 95.011C174.026 94.178 175.56 93.758 177.241 93.758C178.38 93.758 179.267 93.891 179.9 94.164C180.533 94.43 180.772 94.913 180.617 95.599C180.526 96.047 180.315 96.313 179.984 96.404C179.654 96.495 179.253 96.502 178.788 96.425C178.324 96.348 177.804 96.313 177.234 96.313C175.735 96.313 174.399 96.628 173.224 97.251C172.049 97.874 171.135 98.735 170.481 99.827C169.819 100.919 169.489 102.165 169.489 103.565H167.688H167.695Z" fill="#5B6972"></path>
<path d="M191.556 118.797C189.157 118.797 187.005 118.251 185.098 117.159C183.192 116.067 181.694 114.576 180.596 112.679C179.499 110.782 178.95 108.654 178.95 106.295C178.95 103.936 179.499 101.766 180.596 99.869C181.694 97.972 183.192 96.481 185.098 95.389C187.005 94.297 189.157 93.751 191.556 93.751C193.955 93.751 196.1 94.297 197.993 95.389C199.885 96.481 201.376 97.972 202.474 99.869C203.571 101.766 204.12 103.908 204.12 106.295C204.12 108.682 203.571 110.782 202.474 112.679C201.376 114.576 199.885 116.067 197.993 117.159C196.1 118.251 193.955 118.797 191.556 118.797ZM191.556 116.284C193.448 116.284 195.137 115.843 196.621 114.961C198.105 114.079 199.28 112.889 200.131 111.377C200.989 109.872 201.411 108.157 201.411 106.246C201.411 104.335 200.982 102.669 200.131 101.164C199.273 99.659 198.105 98.462 196.621 97.58C195.137 96.698 193.448 96.257 191.556 96.257C189.664 96.257 188.011 96.698 186.512 97.58C185.014 98.462 183.825 99.659 182.953 101.164C182.081 102.669 181.644 104.384 181.644 106.295C181.644 108.206 182.081 109.872 182.953 111.377C183.825 112.889 185.007 114.079 186.512 114.961C188.011 115.843 189.692 116.284 191.556 116.284Z" fill="#5B6972"></path>
<path d="M199.744 129.01C199.357 129.01 199.027 128.884 198.752 128.632C198.485 128.38 198.344 128.058 198.344 127.666C198.344 127.246 198.478 126.91 198.752 126.658C199.02 126.406 199.35 126.28 199.744 126.28C201.278 126.28 202.614 125.951 203.775 125.293C204.929 124.635 205.836 123.725 206.497 122.563C207.158 121.401 207.489 120.071 207.489 118.573V95.368C207.489 94.948 207.616 94.619 207.869 94.381C208.122 94.143 208.446 94.024 208.84 94.024C209.262 94.024 209.599 94.143 209.853 94.381C210.106 94.619 210.233 94.948 210.233 95.368V118.573C210.233 120.603 209.782 122.402 208.882 123.97C207.982 125.538 206.743 126.77 205.168 127.666C203.592 128.562 201.784 129.01 199.744 129.01ZM208.798 88.865C208.228 88.865 207.742 88.662 207.334 88.263C206.926 87.864 206.729 87.36 206.729 86.765C206.729 86.079 206.947 85.561 207.384 85.218C207.82 84.875 208.305 84.7 208.847 84.7C209.353 84.7 209.832 84.875 210.268 85.218C210.704 85.561 210.922 86.079 210.922 86.765C210.922 87.36 210.718 87.864 210.317 88.263C209.909 88.669 209.41 88.865 208.812 88.865H208.798Z" fill="#5B6972"></path>
<path d="M223.922 118.748C221.551 118.748 219.441 118.216 217.598 117.159C215.755 116.102 214.306 114.625 213.25 112.749C212.202 110.866 211.675 108.717 211.675 106.295C211.675 103.873 212.167 101.689 213.159 99.82C214.151 97.951 215.515 96.481 217.253 95.41C218.991 94.332 220.988 93.8 223.239 93.8C225.49 93.8 227.425 94.318 229.134 95.347C230.844 96.376 232.18 97.797 233.144 99.603C234.108 101.409 234.586 103.495 234.586 105.854C234.586 106.239 234.466 106.547 234.227 106.771C233.988 106.995 233.671 107.107 233.285 107.107H213.475V104.776H234.002L232.018 106.253C232.075 104.314 231.751 102.592 231.027 101.101C230.309 99.61 229.275 98.434 227.945 97.587C226.609 96.733 225.04 96.313 223.239 96.313C221.439 96.313 220.003 96.74 218.667 97.587C217.33 98.441 216.282 99.61 215.515 101.101C214.749 102.592 214.369 104.328 214.369 106.295C214.369 108.262 214.777 109.956 215.586 111.447C216.395 112.938 217.52 114.114 218.962 114.961C220.404 115.808 222.05 116.235 223.915 116.235C225.082 116.235 226.264 116.032 227.446 115.633C228.628 115.227 229.57 114.702 230.26 114.044C230.499 113.806 230.794 113.68 231.139 113.666C231.484 113.652 231.779 113.75 232.018 113.96C232.349 114.226 232.518 114.527 232.539 114.856C232.553 115.185 232.412 115.486 232.11 115.752C231.146 116.62 229.894 117.334 228.353 117.901C226.806 118.468 225.329 118.755 223.922 118.755V118.748Z" fill="#5B6972"></path>
<path d="M246.031 118.797C243.689 118.797 241.599 118.244 239.749 117.138C237.906 116.032 236.45 114.541 235.381 112.658C234.312 110.775 233.784 108.654 233.784 106.295C233.784 103.936 234.276 101.773 235.268 99.89C236.26 98.007 237.625 96.523 239.362 95.431C241.1 94.339 243.098 93.793 245.349 93.793C247.269 93.793 249.028 94.157 250.618 94.892C252.207 95.627 253.586 96.733 254.761 98.231C255 98.532 255.091 98.847 255.028 99.169C254.965 99.498 254.775 99.764 254.444 99.974C254.177 100.184 253.874 100.268 253.544 100.219C253.213 100.17 252.925 100.002 252.686 99.701C250.765 97.433 248.317 96.299 245.349 96.299C243.576 96.299 242.021 96.733 240.692 97.601C239.355 98.469 238.321 99.645 237.583 101.143C236.844 102.634 236.478 104.356 236.478 106.295C236.478 108.234 236.886 109.872 237.695 111.377C238.504 112.889 239.623 114.079 241.051 114.961C242.479 115.843 244.132 116.284 246.024 116.284C247.255 116.284 248.416 116.102 249.513 115.745C250.61 115.388 251.56 114.835 252.369 114.086C252.636 113.848 252.939 113.715 253.27 113.68C253.6 113.652 253.882 113.757 254.128 113.995C254.43 114.261 254.585 114.569 254.599 114.912C254.613 115.255 254.486 115.549 254.219 115.787C252.024 117.789 249.295 118.79 246.024 118.79L246.031 118.797Z" fill="#5B6972"></path>
<path d="M255.485 97.335C255.127 97.335 254.831 97.223 254.606 96.999C254.381 96.775 254.268 96.481 254.268 96.124C254.268 95.767 254.381 95.473 254.606 95.249C254.831 95.025 255.127 94.913 255.485 94.913H267.683C268.042 94.913 268.337 95.025 268.563 95.249C268.788 95.473 268.9 95.767 268.9 96.124C268.9 96.481 268.788 96.775 268.563 96.999C268.337 97.223 268.042 97.335 267.683 97.335H255.485ZM267.5 118.524C265.847 118.496 264.377 118.111 263.09 117.383C261.802 116.655 260.796 115.633 260.072 114.338C259.354 113.036 258.989 111.566 258.989 109.928V87.619C258.989 87.199 259.115 86.863 259.368 86.611C259.622 86.359 259.945 86.233 260.339 86.233C260.761 86.233 261.099 86.359 261.352 86.611C261.605 86.863 261.732 87.199 261.732 87.619V109.928C261.732 111.657 262.274 113.071 263.35 114.163C264.433 115.255 265.826 115.801 267.535 115.801H268.527C268.949 115.801 269.287 115.927 269.54 116.179C269.794 116.431 269.92 116.767 269.92 117.187C269.92 117.572 269.794 117.894 269.54 118.153C269.287 118.412 268.949 118.531 268.527 118.531H267.493L267.5 118.524Z" fill="#5B6972"></path>
<path d="M90.8421 57.3441C104.814 57.3441 116.14 46.0733 116.14 32.1699C116.14 18.2666 104.814 6.99573 90.8421 6.99573C76.8703 6.99573 65.5439 18.2666 65.5439 32.1699C65.5439 46.0733 76.8703 57.3441 90.8421 57.3441Z" fill="#F9BBC6"></path>
<path d="M107.945 68.4153H72.8797C68.1892 68.4153 64.3868 72.199 64.3868 76.8666V111.348C64.3868 116.015 68.1892 119.799 72.8797 119.799H107.945C112.635 119.799 116.438 116.015 116.438 111.348V76.8666C116.438 72.199 112.635 68.4153 107.945 68.4153Z" fill="#029AFF"></path>
<path d="M0 115.235V74.1304C0 71.0668 2.49479 68.5843 5.57346 68.5843H46.8808C50.1824 68.5843 52.8046 71.426 52.433 74.6903C49.6197 98.8187 30.3833 117.961 6.13612 120.76C2.85574 121.141 0 118.531 0 115.235Z" fill="#FFDB57"></path>
<path d="M52.7303 50.9317V13.6933C52.7303 7.13301 44.7682 3.83702 40.0971 8.45352L2.3674 45.6919C-2.33554 50.3295 0.96607 58.3054 7.59053 58.3054H45.3202C49.418 58.3054 52.7303 54.9988 52.7303 50.9317Z" fill="#FFAE45"></path>
</g>
<defs>
<clipPath id="clip0_202_85">
<rect width="408" height="126" fill="white"></rect>
</clipPath>
</defs>
</svg>