<svg width="143" height="40" viewBox="0 0 143 40" fill="none" xmlns="http://www.w3.org/2000/svg">
<path d="M25.9209 7.5H9.07914C6.82629 7.5 5 9.34094 5 11.6118V28.3882C5 30.6591 6.82629 32.5 9.07914 32.5H25.9209C28.1737 32.5 30 30.6591 30 28.3882V11.6118C30 9.34094 28.1737 7.5 25.9209 7.5Z" fill="#029AFF"></path>
<path d="M41.76 23.58C40.6933 23.58 39.74 23.34 38.9 22.86C38.0733 22.3667 37.42 21.7067 36.94 20.88C36.4733 20.04 36.24 19.0933 36.24 18.04C36.24 16.96 36.4733 16 36.94 15.16C37.4067 14.32 38.0467 13.6667 38.86 13.2C39.6733 12.72 40.6067 12.48 41.66 12.48C42.4467 12.48 43.1667 12.6333 43.82 12.94C44.4733 13.2333 45.06 13.68 45.58 14.28C45.7667 14.4933 45.8333 14.7133 45.78 14.94C45.7267 15.1667 45.58 15.3667 45.34 15.54C45.1533 15.6733 44.9467 15.72 44.72 15.68C44.4933 15.6267 44.2867 15.5067 44.1 15.32C43.4467 14.6267 42.6333 14.28 41.66 14.28C40.98 14.28 40.38 14.44 39.86 14.76C39.34 15.0667 38.9333 15.5 38.64 16.06C38.3467 16.62 38.2 17.28 38.2 18.04C38.2 18.76 38.3467 19.4 38.64 19.96C38.9467 20.52 39.3667 20.9667 39.9 21.3C40.4333 21.62 41.0533 21.78 41.76 21.78C42.2267 21.78 42.6333 21.7267 42.98 21.62C43.34 21.5 43.6667 21.32 43.96 21.08C44.1733 20.9067 44.3933 20.8133 44.62 20.8C44.8467 20.7733 45.0467 20.8333 45.22 20.98C45.4467 21.1667 45.5733 21.38 45.6 21.62C45.6267 21.8467 45.5467 22.0533 45.36 22.24C44.4 23.1333 43.2 23.58 41.76 23.58ZM52.1717 23.58C51.0917 23.58 50.1384 23.3467 49.3117 22.88C48.4851 22.4 47.8317 21.7467 47.3517 20.92C46.8851 20.08 46.6517 19.12 46.6517 18.04C46.6517 16.9467 46.8851 15.9867 47.3517 15.16C47.8317 14.32 48.4851 13.6667 49.3117 13.2C50.1384 12.72 51.0917 12.48 52.1717 12.48C53.2384 12.48 54.1851 12.72 55.0117 13.2C55.8384 13.6667 56.4851 14.32 56.9517 15.16C57.4317 15.9867 57.6717 16.9467 57.6717 18.04C57.6717 19.12 57.4384 20.08 56.9717 20.92C56.5051 21.7467 55.8584 22.4 55.0317 22.88C54.2051 23.3467 53.2517 23.58 52.1717 23.58ZM52.1717 21.78C52.8651 21.78 53.4784 21.62 54.0117 21.3C54.5451 20.98 54.9584 20.54 55.2517 19.98C55.5584 19.42 55.7117 18.7733 55.7117 18.04C55.7117 17.3067 55.5584 16.66 55.2517 16.1C54.9584 15.5267 54.5451 15.08 54.0117 14.76C53.4784 14.44 52.8651 14.28 52.1717 14.28C51.4784 14.28 50.8651 14.44 50.3317 14.76C49.7984 15.08 49.3784 15.5267 49.0717 16.1C48.7651 16.66 48.6117 17.3067 48.6117 18.04C48.6117 18.7733 48.7651 19.42 49.0717 19.98C49.3784 20.54 49.7984 20.98 50.3317 21.3C50.8651 21.62 51.4784 21.78 52.1717 21.78ZM73.4678 23.52C73.1745 23.52 72.9278 23.4267 72.7278 23.24C72.5411 23.04 72.4478 22.7933 72.4478 22.5V16.78C72.4478 15.94 72.2411 15.32 71.8278 14.92C71.4145 14.5067 70.8745 14.3 70.2078 14.3C69.5145 14.3 68.9411 14.54 68.4878 15.02C68.0478 15.5 67.8278 16.1133 67.8278 16.86H66.1678C66.1678 15.9933 66.3545 15.2333 66.7278 14.58C67.1011 13.9133 67.6211 13.3933 68.2878 13.02C68.9678 12.6467 69.7411 12.46 70.6078 12.46C71.3678 12.46 72.0411 12.6267 72.6278 12.96C73.2145 13.2933 73.6678 13.7867 73.9878 14.44C74.3211 15.08 74.4878 15.86 74.4878 16.78V22.5C74.4878 22.7933 74.3945 23.04 74.2078 23.24C74.0211 23.4267 73.7745 23.52 73.4678 23.52ZM60.1278 23.52C59.8345 23.52 59.5878 23.4267 59.3878 23.24C59.2011 23.04 59.1078 22.7933 59.1078 22.5V13.6C59.1078 13.2933 59.2011 13.0467 59.3878 12.86C59.5878 12.6733 59.8345 12.58 60.1278 12.58C60.4345 12.58 60.6811 12.6733 60.8678 12.86C61.0545 13.0467 61.1478 13.2933 61.1478 13.6V22.5C61.1478 22.7933 61.0545 23.04 60.8678 23.24C60.6811 23.4267 60.4345 23.52 60.1278 23.52ZM66.8078 23.52C66.5145 23.52 66.2678 23.4267 66.0678 23.24C65.8811 23.04 65.7878 22.7933 65.7878 22.5V16.78C65.7878 15.94 65.5811 15.32 65.1678 14.92C64.7545 14.5067 64.2145 14.3 63.5478 14.3C62.8545 14.3 62.2811 14.54 61.8278 15.02C61.3745 15.5 61.1478 16.1133 61.1478 16.86H59.8878C59.8878 15.9933 60.0611 15.2333 60.4078 14.58C60.7545 13.9133 61.2345 13.3933 61.8478 13.02C62.4611 12.6467 63.1611 12.46 63.9478 12.46C64.7078 12.46 65.3811 12.6267 65.9678 12.96C66.5545 13.2933 67.0078 13.7867 67.3278 14.44C67.6611 15.08 67.8278 15.86 67.8278 16.78V22.5C67.8278 22.7933 67.7345 23.04 67.5478 23.24C67.3611 23.4267 67.1145 23.52 66.8078 23.52ZM90.6373 23.52C90.344 23.52 90.0973 23.4267 89.8973 23.24C89.7107 23.04 89.6173 22.7933 89.6173 22.5V16.78C89.6173 15.94 89.4107 15.32 88.9973 14.92C88.584 14.5067 88.044 14.3 87.3773 14.3C86.684 14.3 86.1107 14.54 85.6573 15.02C85.2173 15.5 84.9973 16.1133 84.9973 16.86H83.3373C83.3373 15.9933 83.524 15.2333 83.8973 14.58C84.2707 13.9133 84.7907 13.3933 85.4573 13.02C86.1373 12.6467 86.9107 12.46 87.7773 12.46C88.5373 12.46 89.2107 12.6267 89.7973 12.96C90.384 13.2933 90.8373 13.7867 91.1573 14.44C91.4907 15.08 91.6573 15.86 91.6573 16.78V22.5C91.6573 22.7933 91.564 23.04 91.3773 23.24C91.1907 23.4267 90.944 23.52 90.6373 23.52ZM77.2973 23.52C77.004 23.52 76.7573 23.4267 76.5573 23.24C76.3707 23.04 76.2773 22.7933 76.2773 22.5V13.6C76.2773 13.2933 76.3707 13.0467 76.5573 12.86C76.7573 12.6733 77.004 12.58 77.2973 12.58C77.604 12.58 77.8507 12.6733 78.0373 12.86C78.224 13.0467 78.3173 13.2933 78.3173 13.6V22.5C78.3173 22.7933 78.224 23.04 78.0373 23.24C77.8507 23.4267 77.604 23.52 77.2973 23.52ZM83.9773 23.52C83.684 23.52 83.4373 23.4267 83.2373 23.24C83.0507 23.04 82.9573 22.7933 82.9573 22.5V16.78C82.9573 15.94 82.7507 15.32 82.3373 14.92C81.924 14.5067 81.384 14.3 80.7173 14.3C80.024 14.3 79.4507 14.54 78.9973 15.02C78.544 15.5 78.3173 16.1133 78.3173 16.86H77.0573C77.0573 15.9933 77.2307 15.2333 77.5773 14.58C77.924 13.9133 78.404 13.3933 79.0173 13.02C79.6307 12.6467 80.3307 12.46 81.1173 12.46C81.8773 12.46 82.5507 12.6267 83.1373 12.96C83.724 13.2933 84.1773 13.7867 84.4973 14.44C84.8307 15.08 84.9973 15.86 84.9973 16.78V22.5C84.9973 22.7933 84.904 23.04 84.7173 23.24C84.5307 23.4267 84.284 23.52 83.9773 23.52ZM98.0469 23.6C97.1269 23.6 96.3002 23.4067 95.5669 23.02C94.8469 22.62 94.2735 22.04 93.8469 21.28C93.4335 20.52 93.2269 19.5867 93.2269 18.48V13.56C93.2269 13.2667 93.3202 13.0267 93.5069 12.84C93.7069 12.64 93.9535 12.54 94.2469 12.54C94.5402 12.54 94.7802 12.64 94.9669 12.84C95.1669 13.0267 95.2669 13.2667 95.2669 13.56V18.48C95.2669 19.2267 95.4069 19.8467 95.6869 20.34C95.9669 20.82 96.3469 21.18 96.8269 21.42C97.3069 21.6467 97.8469 21.76 98.4469 21.76C99.0202 21.76 99.5269 21.6467 99.9669 21.42C100.42 21.1933 100.78 20.8867 101.047 20.5C101.314 20.1133 101.447 19.68 101.447 19.2H102.707C102.707 20.0267 102.5 20.7733 102.087 21.44C101.687 22.1067 101.134 22.6333 100.427 23.02C99.7335 23.4067 98.9402 23.6 98.0469 23.6ZM102.467 23.5C102.174 23.5 101.927 23.4067 101.727 23.22C101.54 23.02 101.447 22.7733 101.447 22.48V13.56C101.447 13.2533 101.54 13.0067 101.727 12.82C101.927 12.6333 102.174 12.54 102.467 12.54C102.774 12.54 103.02 12.6333 103.207 12.82C103.394 13.0067 103.487 13.2533 103.487 13.56V22.48C103.487 22.7733 103.394 23.02 103.207 23.22C103.02 23.4067 102.774 23.5 102.467 23.5ZM114.72 23.52C114.426 23.52 114.18 23.4267 113.98 23.24C113.793 23.04 113.7 22.7933 113.7 22.5V17.58C113.7 16.82 113.56 16.2 113.28 15.72C113 15.24 112.62 14.8867 112.14 14.66C111.673 14.42 111.133 14.3 110.52 14.3C109.96 14.3 109.453 14.4133 109 14.64C108.546 14.8667 108.186 15.1733 107.92 15.56C107.653 15.9333 107.52 16.3667 107.52 16.86H106.26C106.26 16.02 106.46 15.2733 106.86 14.62C107.273 13.9533 107.833 13.4267 108.54 13.04C109.246 12.6533 110.04 12.46 110.92 12.46C111.84 12.46 112.66 12.66 113.38 13.06C114.113 13.4467 114.686 14.02 115.1 14.78C115.526 15.54 115.74 16.4733 115.74 17.58V22.5C115.74 22.7933 115.64 23.04 115.44 23.24C115.253 23.4267 115.013 23.52 114.72 23.52ZM106.5 23.52C106.206 23.52 105.96 23.4267 105.76 23.24C105.573 23.04 105.48 22.7933 105.48 22.5V13.58C105.48 13.2733 105.573 13.0267 105.76 12.84C105.96 12.6533 106.206 12.56 106.5 12.56C106.806 12.56 107.053 12.6533 107.24 12.84C107.426 13.0267 107.52 13.2733 107.52 13.58V22.5C107.52 22.7933 107.426 23.04 107.24 23.24C107.053 23.4267 106.806 23.52 106.5 23.52ZM118.733 23.5C118.439 23.5 118.193 23.4067 117.993 23.22C117.806 23.02 117.713 22.7733 117.713 22.48V13.58C117.713 13.2733 117.806 13.0267 117.993 12.84C118.193 12.6533 118.439 12.56 118.733 12.56C119.039 12.56 119.286 12.6533 119.473 12.84C119.659 13.0267 119.753 13.2733 119.753 13.58V22.48C119.753 22.7733 119.659 23.02 119.473 23.22C119.286 23.4067 119.039 23.5 118.733 23.5ZM118.733 10.78C118.373 10.78 118.059 10.6533 117.793 10.4C117.539 10.1333 117.413 9.82 117.413 9.46C117.413 9.1 117.539 8.79333 117.793 8.54C118.059 8.27333 118.373 8.14 118.733 8.14C119.093 8.14 119.399 8.27333 119.653 8.54C119.919 8.79333 120.053 9.1 120.053 9.46C120.053 9.82 119.919 10.1333 119.653 10.4C119.399 10.6533 119.093 10.78 118.733 10.78ZM125.928 23.5C125.261 23.5 124.661 23.3333 124.128 23C123.594 22.6533 123.174 22.1867 122.868 21.6C122.561 21.0133 122.408 20.3533 122.408 19.62V10.08C122.408 9.78667 122.501 9.54667 122.688 9.36C122.874 9.17333 123.114 9.08 123.408 9.08C123.701 9.08 123.941 9.17333 124.128 9.36C124.314 9.54667 124.408 9.78667 124.408 10.08V19.62C124.408 20.1533 124.554 20.6 124.848 20.96C125.141 21.32 125.501 21.5 125.928 21.5H126.608C126.848 21.5 127.048 21.5933 127.208 21.78C127.381 21.9667 127.468 22.2067 127.468 22.5C127.468 22.7933 127.354 23.0333 127.128 23.22C126.914 23.4067 126.634 23.5 126.288 23.5H125.928ZM121.488 14.68C121.208 14.68 120.981 14.6 120.808 14.44C120.634 14.28 120.548 14.08 120.548 13.84C120.548 13.5733 120.634 13.36 120.808 13.2C120.981 13.04 121.208 12.96 121.488 12.96H126.108C126.388 12.96 126.614 13.04 126.788 13.2C126.961 13.36 127.048 13.5733 127.048 13.84C127.048 14.08 126.961 14.28 126.788 14.44C126.614 14.6 126.388 14.68 126.108 14.68H121.488ZM130.335 28.3C130.202 28.3 130.042 28.26 129.855 28.18C129.268 27.9133 129.108 27.4933 129.375 26.92L135.475 13.14C135.742 12.58 136.162 12.42 136.735 12.66C137.335 12.9133 137.502 13.3333 137.235 13.92L131.115 27.68C130.955 28.0933 130.695 28.3 130.335 28.3ZM132.695 23.06C132.442 23.1667 132.202 23.18 131.975 23.1C131.762 23.0067 131.588 22.8333 131.455 22.58L126.875 13.88C126.742 13.6267 126.722 13.3867 126.815 13.16C126.922 12.92 127.102 12.7467 127.355 12.64C127.608 12.5333 127.848 12.5267 128.075 12.62C128.302 12.7 128.475 12.8667 128.595 13.12L132.975 21.82C133.108 22.0733 133.155 22.32 133.115 22.56C133.088 22.7867 132.948 22.9533 132.695 23.06Z" fill="#029AFF"></path>
<path d="M38.38 31.55C37.84 31.55 37.36 31.4333 36.94 31.2C36.5267 30.96 36.2 30.63 35.96 30.21C35.7267 29.79 35.61 29.31 35.61 28.77C35.61 28.2233 35.72 27.7433 35.94 27.33C36.1667 26.91 36.4767 26.58 36.87 26.34C37.2633 26.1 37.7167 25.98 38.23 25.98C38.7367 25.98 39.1767 26.0967 39.55 26.33C39.93 26.5567 40.2233 26.8733 40.43 27.28C40.6367 27.6867 40.74 28.15 40.74 28.67C40.74 28.7767 40.7067 28.8633 40.64 28.93C40.5733 28.99 40.4867 29.02 40.38 29.02H36.13V28.38H40.46L40.03 28.69C40.0367 28.3033 39.9667 27.9567 39.82 27.65C39.6733 27.3433 39.4633 27.1033 39.19 26.93C38.9233 26.7567 38.6033 26.67 38.23 26.67C37.85 26.67 37.5167 26.76 37.23 26.94C36.9433 27.12 36.72 27.37 36.56 27.69C36.4067 28.0033 36.33 28.3633 36.33 28.77C36.33 29.1767 36.4167 29.5367 36.59 29.85C36.77 30.1633 37.0133 30.41 37.32 30.59C37.6267 30.77 37.98 30.86 38.38 30.86C38.62 30.86 38.86 30.82 39.1 30.74C39.3467 30.6533 39.5433 30.5467 39.69 30.42C39.7633 30.36 39.8467 30.33 39.94 30.33C40.0333 30.3233 40.1133 30.3467 40.18 30.4C40.2667 30.48 40.31 30.5667 40.31 30.66C40.3167 30.7533 40.28 30.8333 40.2 30.9C39.98 31.0867 39.7 31.2433 39.36 31.37C39.02 31.49 38.6933 31.55 38.38 31.55ZM43.5173 31.5C43.3573 31.5 43.2373 31.4133 43.1573 31.24L40.9373 26.53C40.8973 26.4433 40.8939 26.3567 40.9273 26.27C40.9606 26.1833 41.0273 26.1167 41.1273 26.07C41.2206 26.0233 41.3106 26.0167 41.3973 26.05C41.4839 26.0833 41.5506 26.1433 41.5973 26.23L43.7273 30.84H43.3173L45.4173 26.23C45.4573 26.1367 45.5239 26.0767 45.6173 26.05C45.7173 26.0167 45.8139 26.02 45.9073 26.06C46.0006 26.1067 46.0639 26.1767 46.0973 26.27C46.1306 26.3567 46.1273 26.44 46.0873 26.52L43.8973 31.24C43.8173 31.4133 43.6906 31.5 43.5173 31.5ZM49.2593 31.55C48.7193 31.55 48.2393 31.4333 47.8193 31.2C47.406 30.96 47.0793 30.63 46.8393 30.21C46.606 29.79 46.4893 29.31 46.4893 28.77C46.4893 28.2233 46.5993 27.7433 46.8193 27.33C47.046 26.91 47.356 26.58 47.7493 26.34C48.1426 26.1 48.596 25.98 49.1093 25.98C49.616 25.98 50.056 26.0967 50.4293 26.33C50.8093 26.5567 51.1026 26.8733 51.3093 27.28C51.516 27.6867 51.6193 28.15 51.6193 28.67C51.6193 28.7767 51.586 28.8633 51.5193 28.93C51.4526 28.99 51.366 29.02 51.2593 29.02H47.0093V28.38H51.3393L50.9093 28.69C50.916 28.3033 50.846 27.9567 50.6993 27.65C50.5526 27.3433 50.3426 27.1033 50.0693 26.93C49.8026 26.7567 49.4826 26.67 49.1093 26.67C48.7293 26.67 48.396 26.76 48.1093 26.94C47.8226 27.12 47.5993 27.37 47.4393 27.69C47.286 28.0033 47.2093 28.3633 47.2093 28.77C47.2093 29.1767 47.296 29.5367 47.4693 29.85C47.6493 30.1633 47.8926 30.41 48.1993 30.59C48.506 30.77 48.8593 30.86 49.2593 30.86C49.4993 30.86 49.7393 30.82 49.9793 30.74C50.226 30.6533 50.4226 30.5467 50.5693 30.42C50.6426 30.36 50.726 30.33 50.8193 30.33C50.9126 30.3233 50.9926 30.3467 51.0593 30.4C51.146 30.48 51.1893 30.5667 51.1893 30.66C51.196 30.7533 51.1593 30.8333 51.0793 30.9C50.8593 31.0867 50.5793 31.2433 50.2393 31.37C49.8993 31.49 49.5726 31.55 49.2593 31.55ZM57.4119 31.5C57.2985 31.5 57.2052 31.4633 57.1319 31.39C57.0585 31.3167 57.0219 31.2267 57.0219 31.12V28.52C57.0219 28.1067 56.9419 27.7667 56.7819 27.5C56.6285 27.2333 56.4152 27.0333 56.1419 26.9C55.8752 26.7667 55.5719 26.7 55.2319 26.7C54.9052 26.7 54.6085 26.7633 54.3419 26.89C54.0819 27.0167 53.8752 27.19 53.7219 27.41C53.5685 27.63 53.4919 27.88 53.4919 28.16H52.9419C52.9552 27.74 53.0685 27.3667 53.2819 27.04C53.4952 26.7067 53.7785 26.4467 54.1319 26.26C54.4852 26.0667 54.8785 25.97 55.3119 25.97C55.7852 25.97 56.2085 26.07 56.5819 26.27C56.9552 26.4633 57.2485 26.75 57.4619 27.13C57.6819 27.51 57.7919 27.9733 57.7919 28.52V31.12C57.7919 31.2267 57.7552 31.3167 57.6819 31.39C57.6085 31.4633 57.5185 31.5 57.4119 31.5ZM53.1119 31.5C52.9919 31.5 52.8952 31.4667 52.8219 31.4C52.7552 31.3267 52.7219 31.2333 52.7219 31.12V26.42C52.7219 26.3 52.7552 26.2067 52.8219 26.14C52.8952 26.0667 52.9919 26.03 53.1119 26.03C53.2252 26.03 53.3152 26.0667 53.3819 26.14C53.4552 26.2067 53.4919 26.3 53.4919 26.42V31.12C53.4919 31.2333 53.4552 31.3267 53.3819 31.4C53.3152 31.4667 53.2252 31.5 53.1119 31.5ZM61.4295 31.5C61.0761 31.5 60.7595 31.4167 60.4795 31.25C60.2061 31.0833 59.9895 30.8567 59.8295 30.57C59.6695 30.2767 59.5895 29.9433 59.5895 29.57V24.68C59.5895 24.5667 59.6228 24.4733 59.6895 24.4C59.7628 24.3267 59.8561 24.29 59.9695 24.29C60.0828 24.29 60.1761 24.3267 60.2495 24.4C60.3228 24.4733 60.3595 24.5667 60.3595 24.68V29.57C60.3595 29.91 60.4595 30.19 60.6595 30.41C60.8595 30.6233 61.1161 30.73 61.4295 30.73H61.6995C61.8061 30.73 61.8928 30.7667 61.9595 30.84C62.0261 30.9133 62.0595 31.0067 62.0595 31.12C62.0595 31.2333 62.0195 31.3267 61.9395 31.4C61.8595 31.4667 61.7595 31.5 61.6395 31.5H61.4295ZM58.9395 26.9C58.8395 26.9 58.7561 26.87 58.6895 26.81C58.6228 26.7433 58.5895 26.6633 58.5895 26.57C58.5895 26.47 58.6228 26.39 58.6895 26.33C58.7561 26.2633 58.8395 26.23 58.9395 26.23H61.4895C61.5895 26.23 61.6728 26.2633 61.7395 26.33C61.8061 26.39 61.8395 26.47 61.8395 26.57C61.8395 26.6633 61.8061 26.7433 61.7395 26.81C61.6728 26.87 61.5895 26.9 61.4895 26.9H58.9395ZM65.0229 31.55C64.6296 31.55 64.2396 31.4833 63.8529 31.35C63.4662 31.2167 63.1529 31.0167 62.9129 30.75C62.8396 30.67 62.8096 30.58 62.8229 30.48C62.8362 30.38 62.8862 30.2933 62.9729 30.22C63.0662 30.1533 63.1629 30.1267 63.2629 30.14C63.3629 30.1533 63.4462 30.1967 63.5129 30.27C63.6729 30.4567 63.8829 30.6 64.1429 30.7C64.4096 30.8 64.7029 30.85 65.0229 30.85C65.5162 30.85 65.8729 30.7667 66.0929 30.6C66.3129 30.4267 66.4262 30.22 66.4329 29.98C66.4329 29.74 66.3196 29.5433 66.0929 29.39C65.8662 29.23 65.4929 29.1067 64.9729 29.02C64.2996 28.9133 63.8062 28.7267 63.4929 28.46C63.1796 28.1933 63.0229 27.8767 63.0229 27.51C63.0229 27.17 63.1129 26.8867 63.2929 26.66C63.4729 26.4333 63.7129 26.2633 64.0129 26.15C64.3129 26.0367 64.6429 25.98 65.0029 25.98C65.4496 25.98 65.8329 26.0567 66.1529 26.21C66.4796 26.3633 66.7429 26.57 66.9429 26.83C67.0096 26.9167 67.0362 27.0067 67.0229 27.1C67.0096 27.1933 66.9562 27.27 66.8629 27.33C66.7829 27.3767 66.6896 27.3933 66.5829 27.38C66.4829 27.36 66.3962 27.31 66.3229 27.23C66.1562 27.0367 65.9629 26.8967 65.7429 26.81C65.5229 26.7167 65.2696 26.67 64.9829 26.67C64.6162 26.67 64.3229 26.7467 64.1029 26.9C63.8829 27.0467 63.7729 27.2333 63.7729 27.46C63.7729 27.6133 63.8129 27.7467 63.8929 27.86C63.9796 27.9733 64.1229 28.0733 64.3229 28.16C64.5296 28.2467 64.8162 28.32 65.1829 28.38C65.6829 28.46 66.0762 28.58 66.3629 28.74C66.6562 28.8933 66.8629 29.0767 66.9829 29.29C67.1096 29.4967 67.1729 29.7233 67.1729 29.97C67.1729 30.2833 67.0796 30.56 66.8929 30.8C66.7129 31.0333 66.4596 31.2167 66.1329 31.35C65.8129 31.4833 65.4429 31.55 65.0229 31.55Z" fill="black"></path>
</svg>