<svg width="270" height="52" viewBox="0 0 270 52" fill="none" xmlns="http://www.w3.org/2000/svg">
<path d="M265.072 39.7209C267.5 39.7209 269.469 37.7526 269.469 35.3246C269.469 32.8966 267.5 30.9283 265.072 30.9283C262.644 30.9283 260.676 32.8966 260.676 35.3246C260.676 37.7526 262.644 39.7209 265.072 39.7209Z" fill="#F9BBC6"></path>
<path d="M268.044 41.6543H261.951C261.136 41.6543 260.475 42.315 260.475 43.1301V49.1518C260.475 49.9669 261.136 50.6276 261.951 50.6276H268.044C268.859 50.6276 269.52 49.9669 269.52 49.1518V43.1301C269.52 42.315 268.859 41.6543 268.044 41.6543Z" fill="#029AFF"></path>
<path d="M249.286 49.8307V42.6523C249.286 42.1173 249.719 41.6838 250.254 41.6838H257.433C258.006 41.6838 258.462 42.1801 258.398 42.7501C257.909 46.9638 254.566 50.3066 250.352 50.7955C249.782 50.8619 249.286 50.4063 249.286 49.8307Z" fill="#FFDB57"></path>
<path d="M258.449 38.601V32.0979C258.449 30.9523 257.066 30.3767 256.254 31.1829L249.697 37.686C248.88 38.4959 249.454 39.8887 250.605 39.8887H257.161C257.874 39.8887 258.449 39.3113 258.449 38.601Z" fill="#FFAE45"></path>
<path d="M40.875 17.8068C40.115 17.8068 39.431 17.6168 38.823 17.2368C38.215 16.8416 37.7362 16.3096 37.3866 15.6408C37.037 14.972 36.8622 14.2196 36.8622 13.3836V2.508C36.8622 2.1736 36.9686 1.9 37.1814 1.6872C37.3942 1.4744 37.6678 1.368 38.0022 1.368C38.3366 1.368 38.6102 1.4744 38.823 1.6872C39.0358 1.9 39.1422 2.1736 39.1422 2.508V13.3836C39.1422 13.9916 39.3094 14.5008 39.6438 14.9112C39.9782 15.3216 40.3886 15.5268 40.875 15.5268H41.6502C41.9238 15.5268 42.1518 15.6332 42.3342 15.846C42.5318 16.0588 42.6306 16.3324 42.6306 16.6668C42.6306 17.0012 42.5014 17.2748 42.243 17.4876C41.9998 17.7004 41.6806 17.8068 41.2854 17.8068H40.875ZM35.8134 7.752C35.4942 7.752 35.2358 7.6608 35.0382 7.4784C34.8406 7.296 34.7418 7.068 34.7418 6.7944C34.7418 6.4904 34.8406 6.2472 35.0382 6.0648C35.2358 5.8824 35.4942 5.7912 35.8134 5.7912H41.0802C41.3994 5.7912 41.6578 5.8824 41.8554 6.0648C42.053 6.2472 42.1518 6.4904 42.1518 6.7944C42.1518 7.068 42.053 7.296 41.8554 7.4784C41.6578 7.6608 41.3994 7.752 41.0802 7.752H35.8134Z" fill="white"></path>
<path d="M46.6518 13.2696C46.3174 13.2696 46.0362 13.1632 45.8082 12.9504C45.5954 12.7224 45.489 12.4412 45.489 12.1068V1.1628C45.489 0.8132 45.5954 0.532 45.8082 0.3192C46.0362 0.1064 46.3174 0 46.6518 0C47.0014 0 47.2826 0.1064 47.4954 0.3192C47.7082 0.532 47.8146 0.8132 47.8146 1.1628V12.1068C47.8146 12.4412 47.7082 12.7224 47.4954 12.9504C47.2826 13.1632 47.0014 13.2696 46.6518 13.2696ZM56.0226 17.8296C55.6882 17.8296 55.407 17.7232 55.179 17.5104C54.9662 17.2824 54.8598 17.0012 54.8598 16.6668V11.058C54.8598 10.1916 54.7002 9.4848 54.381 8.9376C54.0618 8.3904 53.6286 7.9876 53.0814 7.7292C52.5494 7.4556 51.9338 7.3188 51.2346 7.3188C50.5962 7.3188 50.0186 7.448 49.5018 7.7064C48.985 7.9648 48.5746 8.3144 48.2706 8.7552C47.9666 9.1808 47.8146 9.6748 47.8146 10.2372H46.3782C46.3782 9.2796 46.6062 8.4284 47.0622 7.6836C47.5334 6.9236 48.1718 6.3232 48.9774 5.8824C49.783 5.4416 50.6874 5.2212 51.6906 5.2212C52.7394 5.2212 53.6742 5.4492 54.495 5.9052C55.331 6.346 55.9846 6.9996 56.4558 7.866C56.9422 8.7324 57.1854 9.7964 57.1854 11.058V16.6668C57.1854 17.0012 57.0714 17.2824 56.8434 17.5104C56.6306 17.7232 56.357 17.8296 56.0226 17.8296ZM46.6518 17.8296C46.3174 17.8296 46.0362 17.7232 45.8082 17.5104C45.5954 17.2824 45.489 17.0012 45.489 16.6668V6.498C45.489 6.1484 45.5954 5.8672 45.8082 5.6544C46.0362 5.4416 46.3174 5.3352 46.6518 5.3352C47.0014 5.3352 47.2826 5.4416 47.4954 5.6544C47.7082 5.8672 47.8146 6.1484 47.8146 6.498V16.6668C47.8146 17.0012 47.7082 17.2824 47.4954 17.5104C47.2826 17.7232 47.0014 17.8296 46.6518 17.8296Z" fill="white"></path>
<path d="M66.9123 17.898C65.6507 17.898 64.5259 17.632 63.5379 17.1C62.5651 16.5528 61.7975 15.808 61.2351 14.8656C60.6879 13.908 60.4143 12.8136 60.4143 11.5824C60.4143 10.336 60.6727 9.2416 61.1895 8.2992C61.7215 7.3416 62.4511 6.5968 63.3783 6.0648C64.3055 5.5176 65.3695 5.244 66.5703 5.244C67.7559 5.244 68.7743 5.51 69.6255 6.042C70.4767 6.5588 71.1227 7.2808 71.5635 8.208C72.0195 9.12 72.2475 10.1764 72.2475 11.3772C72.2475 11.666 72.1487 11.9092 71.9511 12.1068C71.7535 12.2892 71.5027 12.3804 71.1987 12.3804H62.0103V10.5564H71.1303L70.1955 11.1948C70.1803 10.4348 70.0283 9.7584 69.7395 9.1656C69.4507 8.5576 69.0403 8.0788 68.5083 7.7292C67.9763 7.3796 67.3303 7.2048 66.5703 7.2048C65.7039 7.2048 64.9591 7.3948 64.3359 7.7748C63.7279 8.1548 63.2643 8.6792 62.9451 9.348C62.6259 10.0016 62.4663 10.7464 62.4663 11.5824C62.4663 12.4184 62.6563 13.1632 63.0363 13.8168C63.4163 14.4704 63.9407 14.9872 64.6095 15.3672C65.2783 15.7472 66.0459 15.9372 66.9123 15.9372C67.3835 15.9372 67.8623 15.8536 68.3487 15.6864C68.8503 15.504 69.2531 15.2988 69.5571 15.0708C69.7851 14.9036 70.0283 14.82 70.2867 14.82C70.5603 14.8048 70.7959 14.8808 70.9935 15.048C71.2519 15.276 71.3887 15.5268 71.4039 15.8004C71.4191 16.074 71.2975 16.3096 71.0391 16.5072C70.5223 16.9176 69.8763 17.252 69.1011 17.5104C68.3411 17.7688 67.6115 17.898 66.9123 17.898Z" fill="white"></path>
<path d="M2.40911 50.8068C1.72962 50.8068 1.15823 50.5752 0.694937 50.1119C0.231646 49.6486 0 49.0772 0 48.3977V17.0329C0 16.3225 0.231646 15.7511 0.694937 15.3187C1.15823 14.8554 1.72962 14.6238 2.40911 14.6238H23.3499C24.0603 14.6238 24.6316 14.84 25.0641 15.2724C25.4965 15.6739 25.7127 16.2144 25.7127 16.8939C25.7127 17.5425 25.4965 18.0676 25.0641 18.4691C24.6316 18.8706 24.0603 19.0714 23.3499 19.0714H4.81823V30.3293H18.1147C18.8251 30.3293 19.3965 30.5455 19.8289 30.9779C20.2613 31.3795 20.4775 31.9045 20.4775 32.5531C20.4775 33.2017 20.2613 33.7422 19.8289 34.1746C19.3965 34.5762 18.8251 34.7769 18.1147 34.7769H4.81823V48.3977C4.81823 49.0772 4.58658 49.6486 4.12329 50.1119C3.66 50.5752 3.08861 50.8068 2.40911 50.8068Z" fill="white"></path>
<path d="M39.1944 50.9921C36.6927 50.9921 34.4843 50.4516 32.5694 49.3706C30.6544 48.2587 29.141 46.7453 28.0291 44.8303C26.9481 42.8845 26.4076 40.6607 26.4076 38.159C26.4076 35.6263 26.9481 33.4025 28.0291 31.4876C29.141 29.5417 30.6544 28.0283 32.5694 26.9473C34.4843 25.8354 36.6927 25.2795 39.1944 25.2795C41.6653 25.2795 43.8582 25.8354 45.7732 26.9473C47.6881 28.0283 49.1861 29.5417 50.2671 31.4876C51.379 33.4025 51.9349 35.6263 51.9349 38.159C51.9349 40.6607 51.3944 42.8845 50.3134 44.8303C49.2324 46.7453 47.7344 48.2587 45.8195 49.3706C43.9046 50.4516 41.6962 50.9921 39.1944 50.9921ZM39.1944 46.8225C40.8005 46.8225 42.2213 46.4519 43.4567 45.7106C44.6922 44.9693 45.6496 43.9501 46.3291 42.6529C47.0395 41.3557 47.3947 39.8577 47.3947 38.159C47.3947 36.4602 47.0395 34.9622 46.3291 33.665C45.6496 32.3369 44.6922 31.3022 43.4567 30.561C42.2213 29.8197 40.8005 29.4491 39.1944 29.4491C37.5884 29.4491 36.1676 29.8197 34.9322 30.561C33.6967 31.3022 32.7238 32.3369 32.0134 33.665C31.303 34.9622 30.9478 36.4602 30.9478 38.159C30.9478 39.8577 31.303 41.3557 32.0134 42.6529C32.7238 43.9501 33.6967 44.9693 34.9322 45.7106C36.1676 46.4519 37.5884 46.8225 39.1944 46.8225Z" fill="white"></path>
<path d="M65.9173 51.0384C63.7861 51.0384 61.8712 50.5906 60.1725 49.6949C58.5046 48.7683 57.1765 47.4248 56.1882 45.6643C55.2307 43.9038 54.752 41.7417 54.752 39.1782V27.7812C54.752 27.1017 54.9682 26.5458 55.4006 26.1134C55.8639 25.6501 56.4353 25.4184 57.1147 25.4184C57.7942 25.4184 58.3502 25.6501 58.7826 26.1134C59.2459 26.5458 59.4775 27.1017 59.4775 27.7812V39.1782C59.4775 40.9078 59.8018 42.344 60.4504 43.4868C61.0991 44.5987 61.9793 45.4326 63.0912 45.9886C64.2031 46.5136 65.454 46.7762 66.8439 46.7762C68.172 46.7762 69.3456 46.5136 70.3649 45.9886C71.415 45.4635 72.2489 44.7531 72.8666 43.8574C73.4844 42.9617 73.7932 41.9579 73.7932 40.846H76.712C76.712 42.761 76.2332 44.4906 75.2758 46.0349C74.3492 47.5792 73.0674 48.7992 71.4304 49.6949C69.8244 50.5906 67.9866 51.0384 65.9173 51.0384ZM76.156 50.8068C75.4765 50.8068 74.9051 50.5906 74.4418 50.1582C74.0094 49.6949 73.7932 49.1235 73.7932 48.444V27.7812C73.7932 27.0709 74.0094 26.4995 74.4418 26.0671C74.9051 25.6346 75.4765 25.4184 76.156 25.4184C76.8664 25.4184 77.4378 25.6346 77.8702 26.0671C78.3026 26.4995 78.5188 27.0709 78.5188 27.7812V48.444C78.5188 49.1235 78.3026 49.6949 77.8702 50.1582C77.4378 50.5906 76.8664 50.8068 76.156 50.8068Z" fill="white"></path>
<path d="M104.539 50.8531C103.86 50.8531 103.288 50.6369 102.825 50.2045C102.393 49.7412 102.176 49.1698 102.176 48.4903V37.0934C102.176 35.3329 101.852 33.8967 101.203 32.7848C100.555 31.6729 99.6746 30.8544 98.5627 30.3293C97.4817 29.7734 96.2308 29.4954 94.81 29.4954C93.5128 29.4954 92.3391 29.7579 91.289 30.283C90.2389 30.8081 89.4049 31.5184 88.7872 32.4141C88.1695 33.279 87.8606 34.2827 87.8606 35.4255H84.9419C84.9419 33.4797 85.4052 31.7501 86.3318 30.2367C87.2892 28.6924 88.5865 27.4724 90.2234 26.5767C91.8604 25.681 93.6981 25.2331 95.7366 25.2331C97.8677 25.2331 99.7672 25.6964 101.435 26.623C103.134 27.5187 104.462 28.8468 105.419 30.6073C106.408 32.3678 106.902 34.5298 106.902 37.0934V48.4903C106.902 49.1698 106.67 49.7412 106.207 50.2045C105.775 50.6369 105.219 50.8531 104.539 50.8531ZM85.4978 50.8531C84.8184 50.8531 84.247 50.6369 83.7837 50.2045C83.3513 49.7412 83.1351 49.1698 83.1351 48.4903V27.8276C83.1351 27.1172 83.3513 26.5458 83.7837 26.1134C84.247 25.681 84.8184 25.4648 85.4978 25.4648C86.2082 25.4648 86.7796 25.681 87.212 26.1134C87.6444 26.5458 87.8606 27.1172 87.8606 27.8276V48.4903C87.8606 49.1698 87.6444 49.7412 87.212 50.2045C86.7796 50.6369 86.2082 50.8531 85.4978 50.8531Z" fill="white"></path>
<path d="M122.498 50.9921C120.089 50.9921 117.912 50.4362 115.966 49.3243C114.051 48.1815 112.522 46.6372 111.379 44.6914C110.267 42.7455 109.711 40.5526 109.711 38.1126C109.711 35.6726 110.221 33.4952 111.24 31.5802C112.29 29.6344 113.711 28.1055 115.502 26.9936C117.294 25.8509 119.317 25.2795 121.572 25.2795C123.394 25.2795 125.077 25.6655 126.621 26.4377C128.166 27.179 129.463 28.1982 130.513 29.4954V16.9865C130.513 16.2762 130.729 15.7048 131.162 15.2724C131.625 14.84 132.196 14.6238 132.876 14.6238C133.586 14.6238 134.158 14.84 134.59 15.2724C135.022 15.7048 135.239 16.2762 135.239 16.9865V38.1126C135.239 40.5526 134.667 42.7455 133.524 44.6914C132.413 46.6372 130.899 48.1815 128.984 49.3243C127.069 50.4362 124.907 50.9921 122.498 50.9921ZM122.498 46.8225C124.073 46.8225 125.479 46.4519 126.714 45.7106C127.95 44.9384 128.922 43.8883 129.633 42.5602C130.343 41.2321 130.698 39.7496 130.698 38.1126C130.698 36.4448 130.343 34.9622 129.633 33.665C128.922 32.3678 127.95 31.3486 126.714 30.6073C125.479 29.8352 124.073 29.4491 122.498 29.4491C120.954 29.4491 119.549 29.8352 118.282 30.6073C117.047 31.3486 116.058 32.3678 115.317 33.665C114.607 34.9622 114.252 36.4448 114.252 38.1126C114.252 39.7496 114.607 41.2321 115.317 42.5602C116.058 43.8883 117.047 44.9384 118.282 45.7106C119.549 46.4519 120.954 46.8225 122.498 46.8225Z" fill="white"></path>
<path d="M150.44 50.9921C148.186 50.9921 146.163 50.4362 144.371 49.3243C142.58 48.1815 141.159 46.6526 140.109 44.7377C139.09 42.7919 138.58 40.5989 138.58 38.159C138.58 35.7189 139.136 33.526 140.248 31.5802C141.391 29.6344 142.92 28.1055 144.835 26.9936C146.78 25.8509 148.958 25.2795 151.367 25.2795C153.776 25.2795 155.938 25.8509 157.853 26.9936C159.768 28.1055 161.281 29.6344 162.393 31.5802C163.536 33.526 164.107 35.7189 164.107 38.159H162.301C162.301 40.5989 161.776 42.7919 160.725 44.7377C159.706 46.6526 158.301 48.1815 156.51 49.3243C154.718 50.4362 152.695 50.9921 150.44 50.9921ZM151.367 46.8225C152.942 46.8225 154.347 46.4519 155.583 45.7106C156.818 44.9384 157.791 43.9038 158.502 42.6065C159.212 41.2784 159.567 39.7959 159.567 38.159C159.567 36.4911 159.212 35.0086 158.502 33.7114C157.791 32.3833 156.818 31.3486 155.583 30.6073C154.347 29.8352 152.942 29.4491 151.367 29.4491C149.823 29.4491 148.417 29.8352 147.151 30.6073C145.916 31.3486 144.927 32.3833 144.186 33.7114C143.476 35.0086 143.12 36.4911 143.12 38.159C143.12 39.7959 143.476 41.2784 144.186 42.6065C144.927 43.9038 145.916 44.9384 147.151 45.7106C148.417 46.4519 149.823 46.8225 151.367 46.8225ZM161.745 50.8531C161.065 50.8531 160.494 50.6369 160.031 50.2045C159.598 49.7412 159.382 49.1698 159.382 48.4903V41.402L160.262 36.4911L164.107 38.159V48.4903C164.107 49.1698 163.876 49.7412 163.413 50.2045C162.98 50.6369 162.424 50.8531 161.745 50.8531Z" fill="white"></path>
<path d="M176.654 50.8068C175.109 50.8068 173.719 50.4207 172.484 49.6486C171.249 48.8455 170.276 47.7645 169.565 46.4055C168.855 45.0465 168.5 43.5177 168.5 41.819V19.72C168.5 19.0405 168.716 18.4845 169.148 18.0521C169.581 17.6197 170.137 17.4035 170.816 17.4035C171.496 17.4035 172.052 17.6197 172.484 18.0521C172.916 18.4845 173.133 19.0405 173.133 19.72V41.819C173.133 43.0544 173.472 44.0891 174.152 44.923C174.831 45.7569 175.665 46.1739 176.654 46.1739H178.229C178.785 46.1739 179.248 46.3901 179.619 46.8225C180.02 47.2549 180.221 47.8109 180.221 48.4903C180.221 49.1698 179.958 49.7258 179.433 50.1582C178.939 50.5906 178.291 50.8068 177.488 50.8068H176.654ZM166.369 30.3757C165.72 30.3757 165.195 30.1903 164.793 29.8197C164.392 29.4491 164.191 28.9858 164.191 28.4298C164.191 27.8121 164.392 27.3179 164.793 26.9473C165.195 26.5767 165.72 26.3914 166.369 26.3914H177.071C177.719 26.3914 178.244 26.5767 178.646 26.9473C179.047 27.3179 179.248 27.8121 179.248 28.4298C179.248 28.9858 179.047 29.4491 178.646 29.8197C178.244 30.1903 177.719 30.3757 177.071 30.3757H166.369Z" fill="white"></path>
<path d="M185.149 50.8068C184.469 50.8068 183.898 50.5906 183.435 50.1582C183.002 49.6949 182.786 49.1235 182.786 48.444V27.8276C182.786 27.1172 183.002 26.5458 183.435 26.1134C183.898 25.681 184.469 25.4648 185.149 25.4648C185.859 25.4648 186.431 25.681 186.863 26.1134C187.295 26.5458 187.512 27.1172 187.512 27.8276V48.444C187.512 49.1235 187.295 49.6949 186.863 50.1582C186.431 50.5906 185.859 50.8068 185.149 50.8068ZM185.149 21.3415C184.315 21.3415 183.589 21.0481 182.971 20.4612C182.385 19.8435 182.091 19.1177 182.091 18.2838C182.091 17.4498 182.385 16.7395 182.971 16.1526C183.589 15.5349 184.315 15.226 185.149 15.226C185.983 15.226 186.693 15.5349 187.28 16.1526C187.898 16.7395 188.207 17.4498 188.207 18.2838C188.207 19.1177 187.898 19.8435 187.28 20.4612C186.693 21.0481 185.983 21.3415 185.149 21.3415Z" fill="white"></path>
<path d="M204.086 50.9921C201.584 50.9921 199.376 50.4516 197.461 49.3706C195.546 48.2587 194.033 46.7453 192.921 44.8303C191.84 42.8845 191.299 40.6607 191.299 38.159C191.299 35.6263 191.84 33.4025 192.921 31.4876C194.033 29.5417 195.546 28.0283 197.461 26.9473C199.376 25.8354 201.584 25.2795 204.086 25.2795C206.557 25.2795 208.75 25.8354 210.665 26.9473C212.58 28.0283 214.078 29.5417 215.159 31.4876C216.271 33.4025 216.827 35.6263 216.827 38.159C216.827 40.6607 216.286 42.8845 215.205 44.8303C214.124 46.7453 212.626 48.2587 210.711 49.3706C208.796 50.4516 206.588 50.9921 204.086 50.9921ZM204.086 46.8225C205.692 46.8225 207.113 46.4519 208.349 45.7106C209.584 44.9693 210.541 43.9501 211.221 42.6529C211.931 41.3557 212.287 39.8577 212.287 38.159C212.287 36.4602 211.931 34.9622 211.221 33.665C210.541 32.3369 209.584 31.3022 208.349 30.561C207.113 29.8197 205.692 29.4491 204.086 29.4491C202.48 29.4491 201.059 29.8197 199.824 30.561C198.589 31.3022 197.616 32.3369 196.905 33.665C196.195 34.9622 195.84 36.4602 195.84 38.159C195.84 39.8577 196.195 41.3557 196.905 42.6529C197.616 43.9501 198.589 44.9693 199.824 45.7106C201.059 46.4519 202.48 46.8225 204.086 46.8225Z" fill="white"></path>
<path d="M241.557 50.8531C240.878 50.8531 240.307 50.6369 239.843 50.2045C239.411 49.7412 239.195 49.1698 239.195 48.4903V37.0934C239.195 35.3329 238.87 33.8967 238.222 32.7848C237.573 31.6729 236.693 30.8544 235.581 30.3293C234.5 29.7734 233.249 29.4954 231.828 29.4954C230.531 29.4954 229.357 29.7579 228.307 30.283C227.257 30.8081 226.423 31.5184 225.806 32.4141C225.188 33.279 224.879 34.2827 224.879 35.4255H221.96C221.96 33.4797 222.424 31.7501 223.35 30.2367C224.308 28.6924 225.605 27.4724 227.242 26.5767C228.879 25.681 230.716 25.2331 232.755 25.2331C234.886 25.2331 236.786 25.6964 238.453 26.623C240.152 27.5187 241.48 28.8468 242.438 30.6073C243.426 32.3678 243.92 34.5298 243.92 37.0934V48.4903C243.92 49.1698 243.689 49.7412 243.225 50.2045C242.793 50.6369 242.237 50.8531 241.557 50.8531ZM222.516 50.8531C221.837 50.8531 221.265 50.6369 220.802 50.2045C220.37 49.7412 220.153 49.1698 220.153 48.4903V27.8276C220.153 27.1172 220.37 26.5458 220.802 26.1134C221.265 25.681 221.837 25.4648 222.516 25.4648C223.227 25.4648 223.798 25.681 224.23 26.1134C224.663 26.5458 224.879 27.1172 224.879 27.8276V48.4903C224.879 49.1698 224.663 49.7412 224.23 50.2045C223.798 50.6369 223.227 50.8531 222.516 50.8531Z" fill="white"></path>
</svg>