<svg width="110" height="109" viewBox="0 0 110 109" fill="none" xmlns="http://www.w3.org/2000/svg">
<path d="M85.57 48.3185C98.7309 48.3185 109.4 37.6495 109.4 24.4885C109.4 11.3276 98.7309 0.658539 85.57 0.658539C72.4091 0.658539 61.74 11.3276 61.74 24.4885C61.74 37.6495 72.4091 48.3185 85.57 48.3185Z" fill="#F9BBC6"></path>
<path d="M101.68 58.7985H68.65C64.2317 58.7985 60.65 62.3803 60.65 66.7985V99.4385C60.65 103.857 64.2317 107.439 68.65 107.439H101.68C106.098 107.439 109.68 103.857 109.68 99.4385V66.7985C109.68 62.3803 106.098 58.7985 101.68 58.7985Z" fill="#029AFF"></path>
<path d="M0 103.119V64.2085C0 61.3085 2.35 58.9585 5.25 58.9585H44.16C47.27 58.9585 49.74 61.6485 49.39 64.7385C46.74 87.5785 28.62 105.699 5.78 108.349C2.69 108.709 0 106.239 0 103.119Z" fill="#FFDB57"></path>
<path d="M49.67 42.2485V6.99854C49.67 0.788541 42.17 -2.33146 37.77 2.03854L2.23 37.2885C-2.2 41.6785 0.91 49.2285 7.15 49.2285H42.69C46.55 49.2285 49.67 46.0985 49.67 42.2485Z" fill="#FFAE45"></path>
</svg>